<svg xmlns="http://www.w3.org/2000/svg" viewBox="0 0 750 500"><g id="freepik--background-simple--inject-67"><path d="M672.25,235a463.7,463.7,0,0,0-75.13-98.68c-31.58-31.62-63.77-53-105.3-66.83A308.69,308.69,0,0,0,404.91,53.8c-54.78-1.85-100,11.19-145,44.11-48.25,35.28-93.27,75.21-140.28,112.27q-7.36,5.79-14.79,11.51C22.86,284.63-17,396.45,38.48,423.78H676.55s58-3.06,43.74-65.43A456.55,456.55,0,0,0,672.25,235Z" style="fill:#2975D1"></path><path d="M672.25,235a463.7,463.7,0,0,0-75.13-98.68c-31.58-31.62-63.77-53-105.3-66.83A308.69,308.69,0,0,0,404.91,53.8c-54.78-1.85-100,11.19-145,44.11-48.25,35.28-93.27,75.21-140.28,112.27q-7.36,5.79-14.79,11.51C22.86,284.63-17,396.45,38.48,423.78H676.55s58-3.06,43.74-65.43A456.55,456.55,0,0,0,672.25,235Z" style="fill:#fff;opacity:0.7000000000000001"></path></g><g id="freepik--Plants--inject-67"><path d="M45.8,354.08c2.18.95,7.51.83,7.52.83s-1.15-3.49-1.25-3.7c-1.17-2.45-4.87-6.49-7.88-6.09a3.6,3.6,0,0,0-2.89,4.51C41.8,351.72,43.94,353.26,45.8,354.08Z" style="fill:#263238"></path><path d="M47.64,369.52c2.26.33,7-1,7.4-1.16a62.9,62.9,0,0,0,2.89,8c.65,1.52,1.36,3,2.09,4.52-.44-.63-.83-1.2-.89-1.27-1.78-2.05-6.42-5-9.21-3.79a3.6,3.6,0,0,0-1.6,5.11c1,1.88,3.51,2.81,5.52,3.1s6.11-.8,7.19-1.1c.28.57.56,1.15.85,1.72,1.38,2.74,2.76,5.48,4,8.2.45,1,.86,1.92,1.28,2.88-.39-.57-.72-1-.78-1.1-1.77-2.06-6.41-5-9.21-3.79a3.6,3.6,0,0,0-1.59,5.11c1,1.88,3.51,2.81,5.51,3.1s5.72-.69,7-1.05c.39,1,.79,2,1.13,3,.21.67.46,1.31.64,2s.38,1.35.56,2c.32,1.3.64,2.64.92,3.91.19.89.36,1.73.54,2.58-.44-1-1.34-2.82-1.43-3-1.44-2.3-5.58-5.89-8.53-5.14a3.6,3.6,0,0,0-2.35,4.81c.74,2,3,3.31,5,3.9,2.13.65,6.86.05,7.45,0,.28,1.41.54,2.78.77,4.09.51,2.87.89,5.44,1.18,7.62h2c-.35-2.25-.8-4.94-1.4-7.95-.28-1.44-.61-3-1-4.53a38.81,38.81,0,0,0,4.16-2c1.55,1.69,5.54,3.66,6.06,3.91-.55,1.33-1.09,2.63-1.62,3.84-1.1,2.53-2.15,4.78-3.07,6.69h2.15c.8-1.76,1.67-3.77,2.58-6,.56-1.35,1.13-2.81,1.69-4.31.58.12,5.25,1.07,7.43.58,2-.45,4.37-1.57,5.26-3.52a3.6,3.6,0,0,0-2-5c-2.88-1-7.27,2.3-8.88,4.49-.1.12-1,1.64-1.51,2.6.23-.61.46-1.21.69-1.84.46-1.26.88-2.52,1.34-3.88q.28-1,.6-2c.21-.67.36-1.4.54-2.1.39-1.65.71-3.33,1-5,1.1.4,5,1.76,7,1.62s4.55-.88,5.73-2.68a3.6,3.6,0,0,0-1.21-5.21c-2.7-1.4-7.54,1.17-9.47,3.08-.12.12-1.34,1.65-2,2.51.16-1,.33-2.05.46-3.1.37-3,.65-6.07,1-9.12.09-.94.19-1.87.29-2.8.39.14,5,1.87,7.29,1.71,2-.15,4.56-.89,5.73-2.69a3.59,3.59,0,0,0-1.21-5.21c-2.7-1.39-7.54,1.18-9.46,3.09-.15.14-1.91,2.35-2.33,2.93.22-2.05.45-4.1.77-6.1a63.43,63.43,0,0,1,1.75-8c.18.07,5,1.89,7.33,1.73,2-.14,4.55-.89,5.72-2.69a3.59,3.59,0,0,0-1.2-5.21c-2.7-1.39-7.55,1.18-9.47,3.09-.15.15-2,2.52-2.35,3,0-.16.07-.32.12-.47a45.25,45.25,0,0,1,3.18-7.59c.69-1.36,1.42-2.61,2.17-3.81.86.43,4.82,2.35,6.94,2.44s4.62-.38,6-2a3.59,3.59,0,0,0-.62-5.31c-2.54-1.69-7.63.33-9.75,2-.12.09-1.19,1.15-2,1.94.34-.54.68-1.1,1-1.61,1.28-1.91,2.56-3.59,3.7-5.06.66-.83,1.28-1.57,1.86-2.26,1.06,0,5.36-.15,7.24-1s3.93-2.47,4.38-4.57a3.61,3.61,0,0,0-3-4.43c-3-.32-6.61,3.82-7.71,6.3-.1.21-1.2,3.73-1.15,3.73h.07c-.58.65-1.18,1.35-1.83,2.13-1.18,1.46-2.5,3.11-3.82,5a65,65,0,0,0-4,6.31A47.34,47.34,0,0,0,93.87,367s0,.07,0,.1c0-.89,0-3.38,0-3.57-.35-2.69-2.61-7.69-5.59-8.24a3.59,3.59,0,0,0-4.15,3.38c-.18,2.14,1.37,4.28,2.89,5.63,1.7,1.52,6.43,3,6.81,3.11a61.86,61.86,0,0,0-2,8.26c-.29,1.62-.53,3.27-.75,4.92,0-.77,0-1.46,0-1.55-.35-2.69-2.61-7.69-5.6-8.24a3.59,3.59,0,0,0-4.14,3.38c-.18,2.14,1.37,4.28,2.88,5.63s5.55,2.71,6.61,3.05l-.24,1.9c-.36,3.05-.71,6.09-1.15,9.07-.15,1.05-.34,2.08-.53,3.1,0-.68,0-1.26,0-1.34-.35-2.69-2.61-7.69-5.59-8.24A3.59,3.59,0,0,0,79,390.74c-.18,2.14,1.37,4.28,2.89,5.63s5.15,2.57,6.41,3c-.22,1-.44,2.1-.7,3.11-.2.68-.34,1.35-.57,2l-.64,2c-.46,1.26-.92,2.55-1.4,3.77-.32.84-.65,1.64-1,2.45.16-1,.44-3.09.44-3.26a14,14,0,0,0-1.87-6.8,4.2,4.2,0,0,0-.05-.79,3.59,3.59,0,0,0-4.4-3.05c-2.93.78-4.79,5.93-4.93,8.64,0,.16.09,1.91.18,3-.15-.64-.29-1.26-.45-1.92-.31-1.3-.65-2.58-1-4l-.6-2c-.19-.68-.48-1.36-.71-2.05-.58-1.59-1.25-3.17-2-4.75,1.14-.27,5.16-1.3,6.78-2.54s3.31-3.25,3.29-5.39a3.59,3.59,0,0,0-3.88-3.68c-3,.32-5.64,5.14-6.19,7.79,0,.17-.21,2.12-.29,3.19-.43-.94-.86-1.89-1.33-2.83-1.35-2.72-2.8-5.43-4.23-8.14-.44-.83-.87-1.66-1.3-2.49.4-.09,5.21-1.21,7-2.6,1.6-1.23,3.31-3.25,3.29-5.39A3.6,3.6,0,0,0,68,370c-3,.33-5.64,5.14-6.19,7.8,0,.2-.29,3-.32,3.73-1-1.84-1.89-3.67-2.73-5.51a65.27,65.27,0,0,1-3-7.66c.19,0,5.22-1.19,7.07-2.61,1.61-1.23,3.31-3.25,3.3-5.4a3.6,3.6,0,0,0-3.89-3.68c-3,.33-5.64,5.14-6.19,7.8,0,.21-.31,3.23-.32,3.78,0-.15-.11-.3-.16-.46A46.43,46.43,0,0,1,54,359.69c-.17-1.51-.24-3-.29-4.38,1-.11,5.33-.7,7.14-1.79s3.65-2.87,3.87-5a3.61,3.61,0,0,0-3.46-4.09c-3,0-6.17,4.49-7,7.07,0,.14-.35,1.62-.55,2.7,0-.64,0-1.3,0-1.91,0-2.3.15-4.4.29-6.26.09-1.06.19-2,.3-2.91.88-.6,4.39-3.08,5.47-4.86S61.67,334,60.88,332a3.59,3.59,0,0,0-5-2c-2.7,1.39-3.41,6.83-3,9.5,0,.23,1.06,3.78,1.1,3.75l.06,0c-.12.86-.24,1.78-.35,2.79-.18,1.86-.37,4-.43,6.27a63.34,63.34,0,0,0,.18,7.45A47.79,47.79,0,0,0,54.91,368l0,.09c-.48-.75-1.88-2.8-2-2.95-1.77-2.05-6.41-5-9.21-3.79a3.6,3.6,0,0,0-1.59,5.11C43.16,368.3,45.64,369.23,47.64,369.52Z" style="fill:#263238"></path><path d="M99.74,355.25c.05,0,1-3.54,1-3.78.37-2.68-.49-8.1-3.22-9.42a3.59,3.59,0,0,0-4.89,2.17c-.74,2,.19,4.49,1.29,6.19C95.23,352.41,99.74,355.25,99.74,355.25Z" style="fill:#263238"></path><path d="M667.31,354.08c2.18.95,7.52.83,7.52.83s-1.15-3.49-1.25-3.7c-1.17-2.45-4.87-6.49-7.88-6.09a3.61,3.61,0,0,0-2.89,4.51C663.32,351.72,665.45,353.26,667.31,354.08Z" style="fill:#263238"></path><path d="M669.15,369.52c2.26.33,7-1,7.4-1.16a62.9,62.9,0,0,0,2.89,8c.65,1.52,1.36,3,2.09,4.52-.44-.63-.83-1.2-.89-1.27-1.78-2.05-6.41-5-9.21-3.79a3.59,3.59,0,0,0-1.59,5.11c1,1.88,3.5,2.81,5.51,3.1s6.11-.8,7.19-1.1c.29.57.56,1.15.85,1.72,1.38,2.74,2.77,5.48,4,8.2.46,1,.86,1.92,1.28,2.88-.39-.57-.72-1-.78-1.1-1.77-2.06-6.41-5-9.2-3.79a3.6,3.6,0,0,0-1.6,5.11c1,1.88,3.51,2.81,5.51,3.1s5.72-.69,7-1.05c.4,1,.79,2,1.13,3,.21.67.46,1.31.64,2l.57,2c.31,1.3.64,2.64.91,3.91.19.89.36,1.73.54,2.58-.44-1-1.34-2.82-1.43-3-1.44-2.3-5.58-5.89-8.53-5.14a3.6,3.6,0,0,0-2.35,4.81c.74,2,3,3.31,5,3.9,2.14.65,6.86.05,7.45,0,.28,1.41.54,2.78.77,4.09.51,2.87.89,5.44,1.18,7.62h2c-.35-2.25-.8-4.94-1.4-7.95-.28-1.44-.61-3-1-4.53a39,39,0,0,0,4.15-2c1.56,1.69,5.54,3.66,6.06,3.91-.55,1.33-1.09,2.63-1.62,3.84-1.1,2.53-2.14,4.78-3.07,6.69h2.16c.79-1.76,1.66-3.77,2.57-6,.56-1.35,1.13-2.81,1.7-4.31.57.12,5.24,1.07,7.42.58,2-.45,4.37-1.57,5.26-3.52a3.59,3.59,0,0,0-2-5c-2.88-1-7.27,2.3-8.88,4.49-.1.12-1,1.64-1.51,2.6.23-.61.46-1.21.69-1.84.46-1.26.88-2.52,1.34-3.88q.3-1,.6-2c.21-.67.36-1.4.54-2.1.39-1.65.71-3.33,1-5,1.1.4,5,1.76,7.05,1.62s4.56-.88,5.73-2.68a3.6,3.6,0,0,0-1.21-5.21c-2.7-1.4-7.54,1.17-9.47,3.08-.12.12-1.34,1.65-2,2.51.16-1,.33-2.05.46-3.1.37-3,.66-6.07.95-9.12.09-.94.2-1.87.29-2.8.39.14,5,1.87,7.29,1.71,2-.15,4.56-.89,5.73-2.69a3.59,3.59,0,0,0-1.21-5.21c-2.7-1.39-7.54,1.18-9.46,3.09-.15.14-1.91,2.35-2.33,2.93.22-2.05.45-4.1.77-6.1a63.43,63.43,0,0,1,1.75-8c.18.07,5,1.89,7.33,1.73,2-.14,4.56-.89,5.73-2.69a3.6,3.6,0,0,0-1.21-5.21c-2.7-1.39-7.54,1.18-9.47,3.09-.15.15-2,2.52-2.35,3,0-.16.07-.32.12-.47a45.25,45.25,0,0,1,3.18-7.59c.69-1.36,1.42-2.61,2.17-3.81.86.43,4.82,2.35,6.94,2.44s4.62-.38,6-2a3.59,3.59,0,0,0-.62-5.31c-2.53-1.69-7.63.33-9.75,2-.11.09-1.18,1.15-1.95,1.94.34-.54.69-1.1,1-1.61,1.27-1.91,2.55-3.59,3.7-5.06.66-.83,1.27-1.57,1.85-2.26,1.07,0,5.36-.15,7.24-1s3.94-2.47,4.38-4.57a3.61,3.61,0,0,0-3-4.43c-3-.32-6.61,3.82-7.71,6.3-.1.21-1.2,3.73-1.15,3.73h.07c-.58.65-1.18,1.35-1.83,2.13-1.18,1.46-2.5,3.11-3.82,5a65,65,0,0,0-4,6.31,47.32,47.32,0,0,0-3.38,7.62l0,.1c0-.89,0-3.38-.05-3.57-.35-2.69-2.6-7.69-5.59-8.24a3.6,3.6,0,0,0-4.15,3.38c-.17,2.14,1.38,4.28,2.89,5.63,1.7,1.52,6.43,3,6.81,3.11a65.1,65.1,0,0,0-2,8.26c-.29,1.62-.53,3.27-.75,4.92,0-.77,0-1.46,0-1.55-.35-2.69-2.61-7.69-5.59-8.24a3.59,3.59,0,0,0-4.15,3.38c-.18,2.14,1.37,4.28,2.89,5.63s5.54,2.71,6.6,3.05l-.24,1.9c-.36,3.05-.71,6.09-1.15,9.07-.15,1.05-.34,2.08-.52,3.1,0-.68,0-1.26,0-1.34-.35-2.69-2.6-7.69-5.59-8.24a3.6,3.6,0,0,0-4.15,3.38c-.17,2.14,1.38,4.28,2.89,5.63s5.15,2.57,6.41,3c-.22,1-.44,2.1-.7,3.11-.19.68-.33,1.35-.57,2l-.64,2c-.46,1.26-.92,2.55-1.4,3.77-.32.84-.65,1.64-1,2.45.16-1,.44-3.09.44-3.26a13.81,13.81,0,0,0-1.87-6.8,4.2,4.2,0,0,0,0-.79,3.58,3.58,0,0,0-4.39-3.05c-2.94.78-4.8,5.93-4.94,8.64,0,.16.09,1.91.18,3-.15-.64-.29-1.26-.45-1.92-.3-1.3-.65-2.58-1-4q-.3-1-.6-2c-.19-.68-.48-1.36-.71-2.05-.58-1.59-1.25-3.17-1.95-4.75,1.13-.27,5.15-1.3,6.77-2.54s3.31-3.25,3.3-5.39a3.6,3.6,0,0,0-3.89-3.68c-3,.32-5.64,5.14-6.19,7.79,0,.17-.21,2.12-.29,3.19-.43-.94-.86-1.89-1.32-2.83-1.35-2.72-2.81-5.43-4.24-8.14-.44-.83-.87-1.66-1.3-2.49.4-.09,5.21-1.21,7-2.6,1.61-1.23,3.31-3.25,3.3-5.39a3.61,3.61,0,0,0-3.89-3.69c-3,.33-5.64,5.14-6.19,7.8,0,.2-.29,3-.32,3.73-1-1.84-1.88-3.67-2.73-5.51a63.48,63.48,0,0,1-3-7.66c.18,0,5.21-1.19,7.06-2.61,1.61-1.23,3.31-3.25,3.3-5.4a3.6,3.6,0,0,0-3.89-3.68c-3,.33-5.64,5.14-6.19,7.8,0,.21-.31,3.23-.32,3.78-.05-.15-.11-.3-.16-.46a45.47,45.47,0,0,1-1.53-8.08c-.17-1.51-.25-3-.3-4.38,1-.11,5.33-.7,7.14-1.79s3.65-2.87,3.87-5a3.61,3.61,0,0,0-3.46-4.09c-3,0-6.17,4.49-7,7.07,0,.14-.35,1.62-.55,2.7,0-.64,0-1.3,0-1.91,0-2.3.15-4.4.29-6.26.09-1.06.19-2,.3-2.91.88-.6,4.39-3.08,5.47-4.86s1.92-4.22,1.13-6.22a3.59,3.59,0,0,0-4.95-2c-2.69,1.39-3.4,6.83-3,9.5,0,.23,1.06,3.78,1.11,3.75l0,0c-.12.86-.24,1.78-.34,2.79-.19,1.86-.38,4-.43,6.27a63.24,63.24,0,0,0,.17,7.45,47.79,47.79,0,0,0,1.38,8.23l0,.09c-.47-.75-1.88-2.8-2-2.95-1.77-2.05-6.41-5-9.21-3.79a3.6,3.6,0,0,0-1.59,5.11C664.67,368.3,667.15,369.23,669.15,369.52Z" style="fill:#263238"></path><path d="M721.26,355.25s1-3.54,1-3.78c.37-2.68-.49-8.1-3.22-9.42a3.59,3.59,0,0,0-4.89,2.17c-.74,2,.19,4.49,1.29,6.19C716.74,352.41,721.25,355.25,721.26,355.25Z" style="fill:#263238"></path></g><g id="freepik--Table--inject-67"><path d="M740.84,424.28H38.07a.5.5,0,0,1-.5-.5.51.51,0,0,1,.5-.5H740.84a.5.5,0,0,1,.5.5A.5.5,0,0,1,740.84,424.28Z" style="fill:#263238"></path></g><g id="freepik--Scale--inject-67"><path d="M441.58,262.64H334.94a.5.5,0,0,1-.5-.5V255.5a.5.5,0,0,1,.5-.5h44.73v-7.16a.5.5,0,0,1,.5-.5h5.46V72.41h-4a.5.5,0,0,1-.5-.5V67.66l-7,1.31a6.7,6.7,0,0,1-4.44-1.59L320.32,82.05A5.15,5.15,0,0,1,316,84.52H303.73L338,174.45c.32,0,1,0,1.4,0,1.49,0,1.81,0,2,.28a.52.52,0,0,1,0,.5c-.08.18-.17.39-12.53,8.08-.14.13-.17.16-56.29.2a1.07,1.07,0,0,1-.66-.24L263.61,176a1,1,0,0,1,.65-1.75h1l34-89.28v-.42h-9.95a5.16,5.16,0,0,1-5-6.23,5.21,5.21,0,0,1,5.16-4.08H316a5,5,0,0,1,2.19.51L367.68,60a6.83,6.83,0,0,1,6.43-4.65L381.17,54V52.15a7.09,7.09,0,0,1,14.18,0v2l6.41,1.24a6.69,6.69,0,0,1,6,3.86L460,74.72a5.06,5.06,0,0,1,2.2-.51h26.5a5.22,5.22,0,0,1,5.17,4.08,5.16,5.16,0,0,1-5,6.23H478.27l34.25,89.93c.32,0,1,0,1.4,0,1.49,0,1.81,0,2,.28a.52.52,0,0,1,0,.5c-.08.18-.17.39-12.53,8.08-.14.13-.17.16-56.29.2a1,1,0,0,1-.66-.24L438.15,176a1,1,0,0,1-.28-1.1,1,1,0,0,1,.93-.65h1l34-89.28v-.42H462.16a5.14,5.14,0,0,1-4.37-2.47l-51.22-15.2a6.8,6.8,0,0,1-4.9,2.13l-6.32-1.26v4.19a.5.5,0,0,1-.5.5h-4V247.34h5.46a.5.5,0,0,1,.5.5V255h44.73a.5.5,0,0,1,.5.5v6.64A.5.5,0,0,1,441.58,262.64Zm-106.14-1H441.08V256H396.35a.5.5,0,0,1-.5-.5v-7.16h-5.46a.5.5,0,0,1-.5-.5V71.91a.5.5,0,0,1,.5-.5h4v-4.3a.46.46,0,0,1,.18-.38.51.51,0,0,1,.41-.11L401.76,68A5.72,5.72,0,0,0,406,66a.51.51,0,0,1,.52-.15l51.71,15.35a.49.49,0,0,1,.29.24,4.18,4.18,0,0,0,3.61,2.13H474.3a.5.5,0,0,1,.5.5v1a.57.57,0,0,1,0,.18L440.62,174.9a.5.5,0,0,1-.47.32H438.8l8.36,7.28c18.61,0,53.7-.06,55.88-.12,3.7-2.31,8.75-5.48,11-6.94H514c-1.61.05-2.1.06-2.28-.4h0L477.08,84.19a.5.5,0,0,1,.05-.46.53.53,0,0,1,.42-.21h11.24a4.17,4.17,0,0,0,4.06-5,4.21,4.21,0,0,0-4.19-3.28h-26.5a4.06,4.06,0,0,0-1.92.49.53.53,0,0,1-.37,0L407.3,60.13a.52.52,0,0,1-.32-.28,5.79,5.79,0,0,0-5.31-3.49L394.75,55a.5.5,0,0,1-.4-.49v-2.4a6.09,6.09,0,0,0-12.18,0V54.4a.49.49,0,0,1-.4.49l-7.57,1.46a5.87,5.87,0,0,0-5.64,4.21.52.52,0,0,1-.34.34l-50,14.84a.55.55,0,0,1-.38,0,4,4,0,0,0-1.91-.49H289.44A4.16,4.16,0,0,0,286.1,82a4.16,4.16,0,0,0,3.22,1.53h10.45a.5.5,0,0,1,.5.5v1a.39.39,0,0,1,0,.18L266.08,174.9a.5.5,0,0,1-.47.32h-1.35l8.36,7.28c18.61,0,53.7-.06,55.88-.12,3.7-2.31,8.76-5.48,11-6.94h-.09c-1.61,0-2.1.06-2.27-.4l-34.6-90.85a.48.48,0,0,1,.06-.46.49.49,0,0,1,.41-.21H316a4.16,4.16,0,0,0,3.6-2.13.51.51,0,0,1,.3-.24l49.89-14.81a.48.48,0,0,1,.47.11,5.84,5.84,0,0,0,3.9,1.53l7.47-1.41a.5.5,0,0,1,.41.11.46.46,0,0,1,.18.38v4.35h4a.5.5,0,0,1,.5.5V247.84a.5.5,0,0,1-.5.5h-5.46v7.16a.5.5,0,0,1-.5.5H335.44ZM510,175.22H476.8a.5.5,0,0,1-.5-.5v-87a.5.5,0,0,1,1-.17l33.14,87a.5.5,0,0,1-.05.46A.49.49,0,0,1,510,175.22Zm-32.65-1h31.92L477.3,90.39Zm-3,1h-32a.49.49,0,0,1-.41-.22.5.5,0,0,1-.06-.46l32-84.07a.49.49,0,0,1,.56-.32.51.51,0,0,1,.4.5v84.07A.5.5,0,0,1,474.3,175.22Zm-31.28-1H473.8V93.36Zm-107.61,1H302.26a.5.5,0,0,1-.5-.5v-87a.51.51,0,0,1,.41-.49.51.51,0,0,1,.56.32l33.15,87a.5.5,0,0,1-.06.46A.49.49,0,0,1,335.41,175.22Zm-32.65-1h31.92L302.76,90.39Zm-3,1h-32a.49.49,0,0,1-.41-.22.53.53,0,0,1-.06-.46l32-84.07a.5.5,0,0,1,.56-.32.51.51,0,0,1,.41.5v84.07A.5.5,0,0,1,299.77,175.22Zm-31.29-1h30.79V93.36ZM388.35,60.71a2.84,2.84,0,1,1,2.84-2.84A2.84,2.84,0,0,1,388.35,60.71Zm0-4.67a1.84,1.84,0,1,0,1.84,1.83A1.83,1.83,0,0,0,388.35,56Z" style="fill:#263238"></path></g><g id="freepik--Leaves--inject-67"><path d="M555.34,167.14a.48.48,0,0,1-.45-.28.45.45,0,0,1,0-.36c2-24.56,13.38-38.5,14.31-39a.5.5,0,0,1,.46,0,.47.47,0,0,1,.27.37c4.35,28.83-13.16,38.59-14.3,39.19l0,0A.54.54,0,0,1,555.34,167.14Zm13.73-38c-2.44,3.07-11.17,15.46-13.14,36.6C559.41,163.51,572.34,153.59,569.07,129.11Z" style="fill:#263238"></path><path d="M554.45,153.48h-.12a.53.53,0,0,1-.35-.29A82.31,82.31,0,0,1,545.33,113c0-.44,0-.72,0-.82a.51.51,0,0,1,.27-.54.49.49,0,0,1,.59.12c17.94,19.07,8.88,41.18,8.76,41.38A.58.58,0,0,1,554.45,153.48Zm-8.14-40.15a81.62,81.62,0,0,0,8.09,38.46C555.81,147.67,560.71,129.51,546.31,113.33Z" style="fill:#263238"></path><path d="M554.14,168.24a.52.52,0,0,1-.34-.12c-6.47-5-15-14.37-18.86-30.28-.08-.36-.17-.7-.21-.81a.51.51,0,0,1,0-.52.49.49,0,0,1,.58-.21c16.45,5.55,19,22.89,19.38,28.07.26,3.52-.14,3.72-.33,3.82A.46.46,0,0,1,554.14,168.24Zm0-.49h0Zm-18.23-30.18v0c3.66,15.12,11.61,24.19,17.89,29.24C554,162.77,552.34,143.77,535.91,137.57Z" style="fill:#263238"></path><path d="M553.82,190.11a.5.5,0,0,1-.49-.4.54.54,0,0,1,0-.31c6.21-23.92,19.79-35.58,20.86-36a.5.5,0,0,1,.46.07.53.53,0,0,1,.21.42c-.75,28.59-18.78,35.46-20.84,36.12l-.07,0h0C553.77,190.14,553.84,190.11,553.82,190.11Zm20-35.11c-3,2.61-13.76,13.33-19.29,33.8C558.3,187.23,572.8,179.57,573.86,155Z" style="fill:#263238"></path><path d="M550.24,189.78a.55.55,0,0,1-.35-.12c-5.94-5.56-13.39-15.49-15.23-31.27,0-.39-.07-.65-.09-.77a.46.46,0,0,1,0-.49.49.49,0,0,1,.61-.17c14.21,6.29,15.91,21.17,16,27.28,0,.52,0,5.12-.75,5.49A.54.54,0,0,1,550.24,189.78Zm0-.5h0Zm-14.57-31h0c1.74,15,8.63,24.57,14.33,30.1C550.69,184.44,551.16,165.78,535.66,158.26Z" style="fill:#263238"></path><path d="M545.69,214.68h0a.51.51,0,0,1-.46-.48.45.45,0,0,1,.1-.31c11.13-23.43,27.15-31.17,27.29-31.19a.49.49,0,0,1,.57.6C567,211,547.92,214.4,545.87,214.66h0ZM572,184.13c-3.38,1.93-16,10.15-25.36,29.39C550.54,212.69,566.25,207.87,572,184.13Z" style="fill:#263238"></path><path d="M542.28,213.67a.54.54,0,0,1-.41-.18c-4.79-6.63-10.23-17.81-9-33.6,0-.37,0-.62,0-.74a.49.49,0,0,1,.13-.47.51.51,0,0,1,.64-.06c12.57,8.72,11.57,23.46,10.56,29.39,0,.06-.93,5.4-1.83,5.65Zm0-.5h0ZM533.86,180c-1.16,15,3.79,25.71,8.34,32.25C543.64,208.5,547.63,190.26,533.86,180Z" style="fill:#263238"></path><path d="M533.73,237.42l-.63,0h-.16a.5.5,0,0,1-.37-.54.48.48,0,0,1,.15-.3c15.55-21.2,32.62-25.6,32.76-25.6h0a.5.5,0,0,1,.42.23.49.49,0,0,1,0,.47C555.41,235.9,537.69,237.42,533.73,237.42Zm30.86-25.18c-3.7,1.27-17.65,7-30.54,24.2C538,236.38,554.39,234.69,564.59,212.24Z" style="fill:#263238"></path><path d="M529.87,235.77a.54.54,0,0,1-.45-.25C526,228,522.8,216,527,200.64c.1-.35.17-.59.19-.71a.51.51,0,0,1,.21-.44.5.5,0,0,1,.64.06c10.53,10.77,7,24.94,4.92,30.53,0,.06-2.08,5.59-3.05,5.69ZM528,200.92c-4,14.53-1.2,26.06,2,33.39A36.85,36.85,0,0,0,534.25,218,24.12,24.12,0,0,0,528,200.92Z" style="fill:#263238"></path><path d="M521,258.05a21.22,21.22,0,0,1-5.13-.53.5.5,0,0,1-.26-.6.44.44,0,0,1,.21-.27c18.26-16.89,35.85-19.47,37.28-19.23a.5.5,0,0,1,.38.29.54.54,0,0,1-.05.48C541.68,255.39,528.18,258.05,521,258.05Zm-3.84-1.28c4,.64,20.62,1.81,34.82-18.25C548.11,239.08,533.32,242.12,517.16,256.77Z" style="fill:#263238"></path><path d="M513.24,255.35h0a.55.55,0,0,1-.45-.32c-1.89-8.06-2.62-20.59,4.49-35,.17-.34.29-.57.33-.69a.52.52,0,0,1,.29-.39.49.49,0,0,1,.62.19c7.81,11.87,2.87,24.21-.78,30.5C516.57,251.65,514.08,255.35,513.24,255.35Zm4.92-34.88h0c-6.75,13.67-6.31,25.6-4.62,33.45A37.2,37.2,0,0,0,521,238.57,24.12,24.12,0,0,0,518.16,220.47Z" style="fill:#263238"></path><path d="M505.55,276.31a26.62,26.62,0,0,1-10.8-2,.51.51,0,0,1-.15-.64.53.53,0,0,1,.26-.23c23.29-14.29,40.76-12.21,40.9-12.17a.52.52,0,0,1,.32.36.49.49,0,0,1-.14.47C524.28,273.63,513.26,276.31,505.55,276.31Zm-9.39-2.49c3.84,1.38,20.17,5.68,38.29-11.67C530.52,262,515.35,262.28,496.16,273.82Z" style="fill:#263238"></path><path d="M492.64,271.68h-.06a.55.55,0,0,1-.4-.37.5.5,0,0,1,0-.12c-.16-8.21,1.74-20.72,11.67-33.72.21-.28.42-.55.48-.65a.47.47,0,0,1,.35-.32.5.5,0,0,1,.59.29c5.18,12.73-1.69,23.76-6.25,29.2C496.78,268.63,493.52,271.68,492.64,271.68Zm0-.51h0Zm12-33.15,0,0c-9.43,12.34-11.48,24.22-11.47,32.27a37.91,37.91,0,0,0,10.68-13.9A24.17,24.17,0,0,0,504.66,238Z" style="fill:#263238"></path><path d="M486.86,291.6c-10.6,0-16.92-4.5-17-4.59a.53.53,0,0,1,0-.65.55.55,0,0,1,.32-.19c26.68-9.78,43.49-4.55,43.62-4.48a.48.48,0,0,1,.26.42.48.48,0,0,1-.22.44C503.26,289.52,494.07,291.6,486.86,291.6Zm-15.5-4.81c3.65,2,19.47,9.25,40.95-4.47C508.48,281.4,493.6,278.85,471.36,286.79Z" style="fill:#263238"></path><path d="M468.39,284a.29.29,0,0,1-.14,0,.55.55,0,0,1-.34-.41.49.49,0,0,1,0-.17c2.43-11.77,8.82-22.25,19-31.14l.67-.6a.47.47,0,0,1,.4-.26.52.52,0,0,1,.53.41c2.43,12.93-6.05,22.32-11.32,26.76C473.65,281.55,469.45,284,468.39,284Zm19.27-31.1-.11.1c-9.76,8.54-16,18.55-18.48,29.77A40.29,40.29,0,0,0,483,270.87C487,265.21,488.59,259.18,487.66,252.93Z" style="fill:#263238"></path><path d="M216.32,167.14a.59.59,0,0,1-.22,0l0,0c-1.06-.55-18.67-10.29-14.31-39.19a.47.47,0,0,1,.27-.37.5.5,0,0,1,.46,0c.94.49,12.27,14.43,14.31,39a.45.45,0,0,1,0,.36A.48.48,0,0,1,216.32,167.14Zm-13.73-38c-3.27,24.48,9.66,34.4,13.14,36.6C213.76,144.57,205,132.18,202.59,129.11Z" style="fill:#263238"></path><path d="M217.21,153.48a.58.58,0,0,1-.51-.37c-.12-.2-9.18-22.31,8.76-41.38a.47.47,0,0,1,.59-.1.5.5,0,0,1,.27.52c0,.11,0,.39,0,.82a82.29,82.29,0,0,1-8.65,40.21.53.53,0,0,1-.35.29Zm8.14-40.15c-14.39,16.18-9.5,34.34-8.09,38.46A81.62,81.62,0,0,0,225.35,113.33Z" style="fill:#263238"></path><path d="M217.52,168.24a.46.46,0,0,1-.23-.05c-.19-.1-.59-.3-.33-3.82.39-5.18,2.93-22.52,19.38-28.07a.49.49,0,0,1,.58.21.51.51,0,0,1,0,.52c0,.11-.12.45-.21.81-3.85,15.91-12.39,25.26-18.87,30.3A.54.54,0,0,1,217.52,168.24Zm18.24-30.67c-16.44,6.2-18.14,25.2-17.89,29.28,6.28-5.06,14.23-14.13,17.88-29.24Z" style="fill:#263238"></path><path d="M217.84,190.11s0,0-.17,0h0l-.06,0c-2.05-.65-20.1-7.51-20.85-36.12a.53.53,0,0,1,.21-.42.51.51,0,0,1,.46-.07c1.08.38,14.65,12,20.86,36a.47.47,0,0,1,0,.31A.5.5,0,0,1,217.84,190.11Zm-20-35.19c1,24.63,15.56,32.31,19.29,33.88C211.71,168.9,201,157.61,197.8,154.92Z" style="fill:#263238"></path><path d="M221.42,189.78a.54.54,0,0,1-.21-.05c-.78-.36-.75-5-.75-5.48.07-6.11,1.77-21,16-27.29a.5.5,0,0,1,.66.66c0,.13-.06.39-.1.77-1.84,15.78-9.29,25.71-15.22,31.25A.51.51,0,0,1,221.42,189.78ZM236,158.26c-15.5,7.52-15,26.18-14.34,30.11,5.69-5.51,12.59-15.1,14.33-30.1Z" style="fill:#263238"></path><path d="M226,214.68l-.14,0h0c-2.06-.26-21.16-3.7-27.33-31.36a.49.49,0,0,1,.57-.6c.14,0,16.16,7.76,27.29,31.19a.45.45,0,0,1,.1.31.51.51,0,0,1-.46.48Zm-26.28-30.55c5.72,23.74,21.43,28.56,25.36,29.39C215.67,194.28,203.07,186.06,199.69,184.13Z" style="fill:#263238"></path><path d="M229.38,213.67h-.13c-.9-.25-1.82-5.58-1.83-5.64-1-5.93-2-20.68,10.56-29.4a.51.51,0,0,1,.64.06.49.49,0,0,1,.13.47c0,.12,0,.37.05.74,1.22,15.79-4.21,27-9,33.57A.55.55,0,0,1,229.38,213.67ZM237.8,180c-13.78,10.28-9.77,28.53-8.34,32.25C234,205.73,239,195,237.8,180Z" style="fill:#263238"></path><path d="M237.93,237.42c-4,0-21.68-1.52-32.21-25.77a.49.49,0,0,1,0-.47.45.45,0,0,1,.42-.23c.14,0,17.21,4.4,32.76,25.6a.48.48,0,0,1,.15.3.5.5,0,0,1-.37.54h-.16Zm-30.85-25.18c10.19,22.45,26.54,24.14,30.53,24.2C224.72,219.22,210.77,213.51,207.08,212.24Z" style="fill:#263238"></path><path d="M241.79,235.77h0c-1-.1-3-5.64-3.05-5.7-2-5.59-5.61-19.75,4.92-30.52a.5.5,0,0,1,.64-.06.51.51,0,0,1,.21.44c0,.12.09.36.19.71,4.21,15.33,1,27.4-2.39,34.83A.53.53,0,0,1,241.79,235.77Zm1.91-34.85A24.13,24.13,0,0,0,237.41,218a36.64,36.64,0,0,0,4.29,16.27C244.89,227,247.69,215.49,243.7,200.92Z" style="fill:#263238"></path><path d="M250.66,258.05c-7.18,0-20.68-2.66-32.43-19.86a.51.51,0,0,1,0-.48.46.46,0,0,1,.37-.29c1.43-.23,19,2.33,37.29,19.23a.46.46,0,0,1,.2.27.5.5,0,0,1-.26.6A21.22,21.22,0,0,1,250.66,258.05Zm-31-19.53c14.2,20.06,30.83,18.89,34.82,18.25C238.35,242.12,223.56,239.08,219.68,238.52Z" style="fill:#263238"></path><path d="M258.43,255.35c-.85,0-3.34-3.71-4.5-5.71-3.64-6.3-8.58-18.63-.77-30.49a.48.48,0,0,1,.62-.18.49.49,0,0,1,.29.38q.08.18.33.69c7.11,14.4,6.38,26.93,4.52,34.91a.56.56,0,0,1-.48.4Zm-4.93-34.88a24.14,24.14,0,0,0-2.85,18.11,37.11,37.11,0,0,0,7.48,15.35c1.68-7.76,2.15-19.73-4.62-33.45Z" style="fill:#263238"></path><path d="M266.11,276.31c-7.71,0-18.73-2.67-30.39-14.21a.49.49,0,0,1-.14-.47.52.52,0,0,1,.32-.36c.14,0,17.61-2.12,40.9,12.17a.53.53,0,0,1,.26.23.51.51,0,0,1-.15.64A26.62,26.62,0,0,1,266.11,276.31Zm-28.9-14.16c18.12,17.35,34.45,13.05,38.29,11.67C256.31,262.28,241.14,262,237.21,262.15Z" style="fill:#263238"></path><path d="M279,271.68c-.88,0-4.13-3-6.34-5.68-4.57-5.45-11.46-16.48-6.27-29.22a.5.5,0,0,1,.59-.29.47.47,0,0,1,.35.32c.07.1.27.37.49.65,9.92,13,11.82,25.51,11.66,33.72a.5.5,0,0,1,0,.12.54.54,0,0,1-.4.37ZM267,238a24.15,24.15,0,0,0,.83,18.41,37.88,37.88,0,0,0,10.68,13.91c0-8-2-19.93-11.47-32.27Z" style="fill:#263238"></path><path d="M284.8,291.6c-7.21,0-16.39-2.08-26.93-9.05a.51.51,0,0,1-.22-.44.52.52,0,0,1,.26-.42c.13-.07,16.94-5.3,43.63,4.48a.51.51,0,0,1,.31.19.5.5,0,0,1,0,.65C301.72,287.1,295.39,291.6,284.8,291.6Zm-25.45-9.28c21.48,13.72,37.3,6.52,40.95,4.47C278.06,278.85,263.18,281.4,259.35,282.32Z" style="fill:#263238"></path><path d="M303.27,284c-1,0-5.25-2.48-8.77-5.44-5.27-4.44-13.76-13.82-11.33-26.76a.52.52,0,0,1,.53-.41.47.47,0,0,1,.4.26l.67.6c10.16,8.89,16.55,19.37,19,31.14a.49.49,0,0,1,0,.17.55.55,0,0,1-.34.41A.26.26,0,0,1,303.27,284Zm0-1h0ZM284,252.93c-.93,6.25.63,12.28,4.65,17.94a40.29,40.29,0,0,0,13.94,11.93c-2.51-11.22-8.72-21.23-18.48-29.77Z" style="fill:#263238"></path></g><g id="freepik--character-2--inject-67"><path d="M317.59,291.18s-2.11,24-2.12,25.44-27.79,67.74-30,73.79-6.47,17.93-5,23.14,9.31,10.17,13.85,11.67,13.62,1.4,15.29,1.1,10.52-.16,10.52-.16l8.63-20.64-7.65-3.78,11.51-33.18-4.74-40Z" style="fill:#263238"></path><path d="M305.76,427c-3.55,0-8.54-.29-11.59-1.3-4.17-1.38-12.62-6.32-14.18-12-1.43-5.23,2.69-16.78,4.9-23l.16-.44c.93-2.63,6.72-16.66,12.85-31.52,7.52-18.22,16.87-40.9,17.08-42.15,0-1.4,2-24.46,2.12-25.44a.5.5,0,0,1,1-.09l10.29,37.41,4.76,40a.58.58,0,0,1,0,.23l-11.36,32.76,7.25,3.58a.51.51,0,0,1,.24.64l-8.63,20.64a.59.59,0,0,1-.47.31c-3-.05-9.13-.08-10.42.15A30.12,30.12,0,0,1,305.76,427Zm12.09-133c-.56,6.35-1.87,21.52-1.88,22.63,0,.79-5.05,13.17-17.15,42.49C292.7,374,286.92,388,286,390.58l-.16.45c-2.17,6.1-6.22,17.46-4.87,22.39s8.84,9.77,13.52,11.32,13.53,1.36,15,1.09,8.61-.2,10.28-.17l8.31-19.9-7.22-3.57a.49.49,0,0,1-.25-.61l11.47-33.07-4.73-39.86Z" style="fill:#263238"></path><path d="M321.12,402.24a.52.52,0,0,1-.21,0c-.17-.08-17.92-8.15-27-7.78a.5.5,0,0,1-.52-.48.51.51,0,0,1,.48-.52c9.36-.3,26.73,7.53,27.47,7.87a.5.5,0,0,1,.25.66A.52.52,0,0,1,321.12,402.24Z" style="fill:#fff"></path><path d="M336.38,395.6l-2.28,28.18H457.46a300.81,300.81,0,0,1-4.37-45.6s6.2-49.8,6.2-55.71,4.75-22.92,3.57-25.82-27.15-10.8-38.37-14.8-27.16-7.54-27.16-7.54l-29.23,3.16s-34.26,6.31-41.64,7.47-8.27,3-8.87,6.24,10.3,37.41,10.3,37.41Z" style="fill:#263238"></path><path d="M457.46,424.28H334.1a.51.51,0,0,1-.37-.16.49.49,0,0,1-.13-.38l2.28-28.13-8.49-67c-1.1-3.41-10.89-34.26-10.29-37.56s1.53-5.42,9.28-6.64C333.67,283.3,367.67,277,368,277l29.27-3.17a.29.29,0,0,1,.16,0c.16,0,16.1,3.58,27.22,7.56,2.71,1,6.33,2.18,10.17,3.46,16.11,5.39,27.59,9.37,28.5,11.62.65,1.62-.19,6.28-1.65,13.76-.93,4.75-1.89,9.65-1.89,12.25,0,5.87-6,53.74-6.2,55.77A303.33,303.33,0,0,0,458,423.69a.47.47,0,0,1-.11.41A.49.49,0,0,1,457.46,424.28Zm-122.82-1H456.87a303.84,303.84,0,0,1-4.28-45.1c.07-.56,6.2-49.9,6.2-55.71,0-2.69,1-7.65,1.91-12.44,1.08-5.5,2.29-11.73,1.7-13.2-.81-2-17.1-7.44-27.89-11-3.84-1.29-7.47-2.5-10.19-3.47-10.65-3.81-25.78-7.23-27-7.51L368.15,278c-.3.06-34.31,6.31-41.61,7.47s-7.92,2.87-8.45,5.83c-.42,2.31,5.91,23.49,10.28,37.17l8.51,67.09v.11Z" style="fill:#263238"></path><path d="M364.28,295.27s2.29,15.55,5.26,28.32,11.23,31.76,11.23,31.76,20-32.48,23-47.54,3.93-19.69,3.93-19.69l-43.22-.44Z" style="fill:#fff"></path><path d="M380.77,355.85h0a.51.51,0,0,1-.43-.3c-.08-.19-8.3-19.19-11.26-31.85s-5.24-28.2-5.26-28.35a.28.28,0,0,1,0-.09l.24-7.6a.5.5,0,0,1,.5-.48h0l43.22.44a.47.47,0,0,1,.38.19.5.5,0,0,1,.1.41l-3.93,19.69c-3,15-22.28,46.38-23.1,47.71A.51.51,0,0,1,380.77,355.85Zm-16-60.6c.14.92,2.39,16,5.25,28.22,2.56,11,9.17,26.89,10.82,30.79,3.13-5.15,19.79-33.08,22.47-46.54l3.81-19.1L365,288.18Z" style="fill:#263238"></path><path d="M368.91,267.51s-4.15,10.27-6.22,14.26-14.05,21-13.36,22.34,6.67-.48,8.28-1.23,9-3.55,9-3.55-1.62,3.51-.93,4.63,11.72,11.29,11.72,11.29l8.73.13a33.43,33.43,0,0,1,3-3.1c1.62-1.44,12.43-8.29,15.19-10.23s3-7,3-7,14.24,7.74,14.93,4.95-3-6.09-6.65-15.61-5-15.67-8-20.16-4.14-4.67-4.14-4.67Z" style="fill:#fff"></path><path d="M386.1,315.88h0l-8.74-.13a.52.52,0,0,1-.33-.14c-1.14-1-11.1-10.24-11.8-11.39-.56-.91,0-2.78.44-4-2.11.81-6.65,2.57-7.85,3.13-.08,0-7.84,3.16-8.94,1-.48-.95,1.64-4.5,8.25-14.65,2.24-3.45,4.37-6.72,5.11-8.15,2-3.92,6.16-14.11,6.21-14.22a.5.5,0,0,1,.35-.3l34.49-8a.41.41,0,0,1,.19,0c.32.05,1.59.56,4.47,4.89,2,3,3.31,6.81,5,11.62.87,2.53,1.86,5.39,3.11,8.64a74.62,74.62,0,0,0,4.58,9.62c1.57,2.86,2.51,4.59,2.09,6.3a1.17,1.17,0,0,1-.71.81c-2.37,1-11.26-3.48-14.29-5.09-.18,1.55-.85,5-3.13,6.62-1,.73-3.14,2.1-5.58,3.7-3.82,2.5-8.58,5.61-9.56,6.49a32.77,32.77,0,0,0-2.94,3.05A.53.53,0,0,1,386.1,315.88Zm-8.53-1.13,8.3.12a36.52,36.52,0,0,1,2.89-3c1-.93,5.63-3.93,9.68-6.58,2.33-1.52,4.53-3,5.55-3.68,2.53-1.78,2.78-6.58,2.79-6.63a.48.48,0,0,1,.25-.41.51.51,0,0,1,.48,0c4.57,2.48,12.43,6.15,14.08,5.42.11,0,.13-.1.14-.15.33-1.32-.55-2.92-2-5.57a74.06,74.06,0,0,1-4.63-9.74c-1.26-3.27-2.25-6.14-3.13-8.68-1.69-4.92-2.92-8.49-4.85-11.38-2.32-3.49-3.45-4.27-3.76-4.43l-34.08,7.87c-.65,1.58-4.27,10.44-6.15,14.06-.77,1.48-2.81,4.61-5.17,8.23-3.27,5-8.22,12.64-8.16,13.74.33.61,5.21-.43,7.6-1.54,1.6-.75,8.7-3.46,9-3.57a.5.5,0,0,1,.54.13.48.48,0,0,1,.09.55c-.6,1.31-1.33,3.55-.95,4.16C366.55,304.47,373.15,310.68,377.57,314.75Z" style="fill:#263238"></path><path d="M371.89,273.38s.9,25.25,1.12,29.61,9.17,24,10.78,21.44,12-22.06,15.21-29.31,4.39-21.78,4.85-24.78.94-16.59.94-16.59-12,18.15-16.81,20.86S371.89,273.38,371.89,273.38Z" style="fill:#fff"></path><path d="M383.42,325.16a1.15,1.15,0,0,1-.26,0c-2.92-.75-10.45-18.27-10.65-22.11-.22-4.31-1.11-29.37-1.12-29.63a.51.51,0,0,1,.21-.42.53.53,0,0,1,.46-.07c.11,0,11.1,3.84,15.68,1.27s16.51-20.52,16.63-20.7a.5.5,0,0,1,.57-.2.5.5,0,0,1,.35.49c0,.56-.48,13.65-.94,16.65-.09.54-.19,1.44-.33,2.6-.61,5.29-1.89,16.29-4.56,22.31-3.28,7.36-13.66,26.84-15.24,29.38A.93.93,0,0,1,383.42,325.16Zm-11-51.08c.15,4.15.89,25,1.09,28.89.22,4.2,8.09,21,9.91,21.2,1.52-2.53,11.86-21.93,15.12-29.25,2.62-5.88,3.88-16.78,4.49-22,.14-1.18.25-2.1.33-2.64.35-2.3.72-11,.86-14.77-3,4.42-11.88,17.25-16,19.56C383.91,277.47,375,274.9,372.42,274.08Z" style="fill:#263238"></path><polygon points="386.92 280.12 372.49 289.01 371.89 273.38 386.92 280.12" style="fill:#263238"></polygon><path d="M372.48,289.51a.46.46,0,0,1-.23-.06A.51.51,0,0,1,372,289l-.59-15.64a.53.53,0,0,1,.22-.43.53.53,0,0,1,.49,0l15,6.75a.48.48,0,0,1,.29.42.52.52,0,0,1-.23.46l-14.44,8.88A.5.5,0,0,1,372.48,289.51Zm-.06-15.35.53,14,12.91-7.94Z" style="fill:#263238"></path><path d="M328.77,405.52S356,409,357.92,409s10.52,4.87,13.62,7.14,9.18,7.55,9.18,7.55l-31.66.71a28.4,28.4,0,0,0-5.49-.75c-1.92.07-4.55,1.6-10,1.57s-11.71-2.67-11.71-2.67Z" style="fill:#fff"></path><path d="M333.7,425.68h-.18c-5.53,0-11.64-2.6-11.9-2.71a.5.5,0,0,1-.27-.65l6.95-17a.51.51,0,0,1,.53-.31c9.3,1.2,27.16,3.44,29,3.44H358c2.27,0,11,5.12,13.88,7.24,3.08,2.26,9.14,7.52,9.21,7.57a.5.5,0,0,1-.32.88l-31.66.71-.12,0a29.56,29.56,0,0,0-5.36-.73,11.35,11.35,0,0,0-2.27.46A26.66,26.66,0,0,1,333.7,425.68Zm-11.23-3.44a35,35,0,0,0,11.06,2.44,27.58,27.58,0,0,0,7.53-1.07,10.93,10.93,0,0,1,2.49-.5,27.76,27.76,0,0,1,5.56.75l30.29-.68c-1.84-1.59-5.85-5-8.16-6.68-3.38-2.47-11.54-7-13.26-7h-.11c-2.29,0-25.38-3-28.79-3.4Z" style="fill:#263238"></path><path d="M356.06,424.26a.57.57,0,0,1-.25-.06c-.07-.05-7.48-4.35-9.34-5.21-1.43-.66-5.85.11-7.43.46a.5.5,0,1,1-.22-1c.61-.14,6.07-1.32,8.07-.4s9.12,5.07,9.42,5.25a.5.5,0,0,1-.25.93Z" style="fill:#263238"></path><path d="M364.9,424.2a.54.54,0,0,1-.33-.12C361,421,355,415.94,354,415.6s-6.73-.42-10.31-.39a.52.52,0,0,1-.51-.5.5.5,0,0,1,.5-.5c.93,0,9.1-.06,10.63.44s10,7.84,10.91,8.68a.49.49,0,0,1,0,.7A.52.52,0,0,1,364.9,424.2Z" style="fill:#263238"></path><path d="M373.07,423.76a.53.53,0,0,1-.4-.19c-.47-.61-4.82-4.18-8-6.78-2.25-1.84-4-3.3-4.45-3.72-.59-.57-4.51-.91-8-.91a.5.5,0,0,1-.5-.5.5.5,0,0,1,.5-.5h0c1.23,0,7.47.06,8.64,1.19.41.39,2.25,1.91,4.4,3.66,4.46,3.66,7.66,6.3,8.15,6.94a.51.51,0,0,1-.09.71A.49.49,0,0,1,373.07,423.76Z" style="fill:#263238"></path><path d="M422.88,413.9l-4.66-10.45,11.09-1.25S430.26,410.85,422.88,413.9Z" style="fill:#fff"></path><path d="M422.88,414.4a.5.5,0,0,1-.46-.3l-4.65-10.44a.5.5,0,0,1,.4-.7l11.09-1.26a.56.56,0,0,1,.37.11.48.48,0,0,1,.18.33c0,.1.9,9.07-6.74,12.22A.43.43,0,0,1,422.88,414.4ZM419,403.87l4.17,9.37c5.6-2.61,5.79-8.68,5.72-10.49Z" style="fill:#263238"></path><path d="M442.47,317.79s-15.08,19.17-15.38,23.9,6.45,43.76,6.45,43.76l-13.29,3.15s3.53,9.32,3.52,14.64a74.56,74.56,0,0,1-.89,10.66s26.27,5.21,33.36,4.36,9.16-3.6,13.59-10-.87-17.1-3.22-22.92-1.47-8.8-1.47-8.8L458.41,316" style="fill:#263238"></path><path d="M454.31,418.85c-8.94,0-30.54-4.26-31.53-4.46a.51.51,0,0,1-.4-.57,74.05,74.05,0,0,0,.89-10.59c0-5.16-3.46-14.36-3.49-14.45a.53.53,0,0,1,0-.41.49.49,0,0,1,.33-.25L433,385.07c-.79-4.62-6.66-38.89-6.37-43.41.3-4.83,14.86-23.39,15.48-24.18a.51.51,0,0,1,.71-.09.52.52,0,0,1,.08.71c-5.18,6.58-15,20-15.27,23.62-.3,4.63,6.37,43.25,6.44,43.64a.49.49,0,0,1-.38.57l-12.74,3c.76,2.08,3.37,9.6,3.36,14.28a76.28,76.28,0,0,1-.82,10.26c3.56.69,26.31,5,32.73,4.26,6.7-.81,8.64-3.14,13.24-9.75,3.83-5.5,0-14.55-2.49-20.54-.28-.67-.55-1.31-.79-1.9-2.17-5.37-1.65-8.42-1.51-9l-6.71-60.49a.49.49,0,0,1,.44-.55.5.5,0,0,1,.55.44l6.73,60.58a.62.62,0,0,1,0,.19s-.79,2.93,1.45,8.48c.24.58.5,1.21.79,1.89,2.6,6.18,6.53,15.54,2.38,21.49-4.59,6.59-6.74,9.3-13.94,10.17A16.48,16.48,0,0,1,454.31,418.85Z" style="fill:#263238"></path><path d="M433.54,385.45s15.95-3.56,25.69-3.92" style="fill:#fff"></path><path d="M433.54,386a.5.5,0,0,1-.11-1c.16,0,16.1-3.57,25.78-3.93a.5.5,0,1,1,0,1c-9.59.36-25.45,3.87-25.6,3.91Z" style="fill:#263238"></path><path d="M383.74,366.46l-4.37-24.31s-25.52,1.17-36.82,1.8-45-.4-45-.4,19.4,51.16,21.07,55.28,3.13,7.62,3.13,7.62a225.61,225.61,0,0,0,39.33,2.92c19.67-.53,28.46-5.26,28.46-5.26Z" style="fill:#fff"></path><path d="M356.94,409.92a232.06,232.06,0,0,1-35.25-3,.51.51,0,0,1-.38-.3s-1.46-3.5-3.13-7.63-20.88-54.77-21.08-55.28a.52.52,0,0,1,.06-.47.56.56,0,0,1,.43-.21c.33,0,33.79,1,44.93.4s36.58-1.79,36.83-1.8a.5.5,0,0,1,.52.41l4.37,24.31v0L390.06,404a.51.51,0,0,1-.26.51c-.36.2-9.12,4.79-28.68,5.32C359.72,409.9,358.33,409.92,356.94,409.92ZM322.13,406a227,227,0,0,0,39,2.87c17.28-.47,26.19-4.23,27.92-5.05l-5.76-37.28L379,342.67c-3.43.15-26,1.2-36.38,1.78s-39.24-.23-44.28-.38c2.34,6.16,19.27,50.76,20.81,54.57C320.51,402.1,321.77,405.13,322.13,406Z" style="fill:#263238"></path><path d="M420.25,388.6l-9.33-3.7S395,372.73,393.57,371.32s-9.83-4.86-9.83-4.86l1.88,9.76S357.15,389,355.26,390.55s2.09,2.85,2.09,2.85-3.76,2.44-1.88,3.62,8.37,1,8.37,1a25.74,25.74,0,0,0,8.15,2.62c4.19.47,13.81.94,13.81.94a7.43,7.43,0,0,1-4.19,2.67c-3.14,1-12.56,4-11.3,5.66s10.25,0,10.25,0,17.16-3.78,17.79-3.81,6.06,1.24,8.78,1.14,9-1.18,9-1.18l7.53-.07S423.5,393.38,420.25,388.6Z" style="fill:#fff"></path><path d="M373.74,411.09c-1.76,0-3.29-.23-3.83-.93a1,1,0,0,1-.16-1c.59-1.85,7.59-4.23,11.72-5.49a8.63,8.63,0,0,0,3.26-1.74c-2.62-.14-9.46-.52-12.79-.9a25.85,25.85,0,0,1-8.22-2.61c-1.12,0-6.66.15-8.52-1a1.47,1.47,0,0,1-.76-1.25c0-1,1.08-2,1.88-2.68-.81-.37-1.88-1-2-1.89a1.49,1.49,0,0,1,.67-1.47c1.82-1.48,26.64-12.67,30.1-14.23l-1.8-9.37a.51.51,0,0,1,.18-.49.5.5,0,0,1,.5-.07c.35.14,8.47,3.5,10,5s16.22,12.71,17.25,13.5l9.26,3.68a.58.58,0,0,1,.23.18c3.3,4.84,3.5,17.12,3.5,17.64a.54.54,0,0,1-.14.36.51.51,0,0,1-.35.15l-7.54.07c-.17,0-6.26,1.08-9,1.18a42,42,0,0,1-7-.85c-.79-.14-1.58-.26-1.77-.29-.59.06-10.91,2.3-17.69,3.8A44.87,44.87,0,0,1,373.74,411.09Zm-9.9-13.62a.46.46,0,0,1,.23.06,25.43,25.43,0,0,0,8,2.56c4.12.46,13.68.94,13.77.94a.49.49,0,0,1,.42.27.5.5,0,0,1,0,.49,7.93,7.93,0,0,1-4.47,2.89c-7.63,2.32-11.07,4.24-11.07,4.86.67.87,5.6.6,9.78-.14,2.85-.63,17.22-3.79,17.86-3.82a18.14,18.14,0,0,1,2,.3,39.3,39.3,0,0,0,6.8.84c2.66-.1,8.87-1.16,8.94-1.17l7.1-.08c-.07-2.35-.53-12.32-3.23-16.46l-9.18-3.65a.35.35,0,0,1-.12-.07c-.65-.49-15.93-12.19-17.4-13.61-1-1-6.1-3.25-8.81-4.4l1.7,8.85a.5.5,0,0,1-.29.55c-7.9,3.55-28.73,13-30.24,14.25-.24.2-.34.37-.32.52.1.53,1.4,1.19,2.25,1.47a.5.5,0,0,1,.34.41.53.53,0,0,1-.22.49c-.91.59-2.19,1.72-2.19,2.38,0,.06,0,.22.29.4,1.44.9,6.33.93,8.09.87Z" style="fill:#263238"></path><path d="M385.62,376.72a.5.5,0,0,1-.22-1l5.23-2.49a.5.5,0,1,1,.43.9l-5.23,2.5A.52.52,0,0,1,385.62,376.72Z" style="fill:#263238"></path><path d="M357.35,393.9a.5.5,0,0,1-.15-1l28.67-9.44a.5.5,0,0,1,.63.31.49.49,0,0,1-.32.63l-28.67,9.45A.41.41,0,0,1,357.35,393.9Z" style="fill:#263238"></path><path d="M363.83,398.47a.5.5,0,0,1-.08-1l26.78-4.77a.5.5,0,0,1,.58.4.49.49,0,0,1-.4.58l-26.79,4.78Z" style="fill:#263238"></path><path d="M385.8,402a.5.5,0,0,1,0-1l7.53-.49a.5.5,0,0,1,.53.47.5.5,0,0,1-.47.53l-7.53.49Z" style="fill:#263238"></path><path d="M389.67,189.65s1.71-9.29,4.62-9.88,21.23.76,24.63,6.21,4.7,24.24,3,26.24-12.14,3.85-13.35,3.9-5.33-13.39-11.87-18.48S389.67,189.65,389.67,189.65Z" style="fill:#263238"></path><path d="M408.56,216.62c-.71,0-1.22-1-2.8-4.33-2.08-4.39-5.23-11-9.37-14.26-6.63-5.15-7.2-8.17-7.22-8.3a.33.33,0,0,1,0-.17c.18-1,1.86-9.64,5-10.28,2.91-.6,21.57.68,25.15,6.44,3.31,5.32,5,24.44,3,26.82s-12.79,4-13.71,4.08Zm-18.38-27c.14.47,1.15,3.19,6.82,7.6,4.33,3.37,7.54,10.14,9.67,14.63a22,22,0,0,0,2,3.74c1.77-.12,11.4-2,12.89-3.71,1.35-1.6.42-20.07-3.05-25.66-3.22-5.17-21.47-6.52-24.1-6C392.53,180.64,390.83,186.17,390.18,189.64Z" style="fill:#263238"></path><path d="M357.63,192.55s-8,3.95-9.47,8.61a45,45,0,0,0-1.71,9.77s-10.2,3.54-9,11.26,9.69,12.5,10.42,13,8,12.31,8,12.31l.73-10s-.48-1.68,10.68-2.59,18.93.26,22.09-.59,4.37-1.13,4.37-1.13.72.94,4.12,2.76,8,5.76,9.7,4.49,3.9-12.29,3.9-12.29S412.94,209.4,413,206s-7.52-10.16-9.46-11.78-17.94-8.31-21.58-9.38-14.32.29-18.45,2.87A23.19,23.19,0,0,0,357.63,192.55Z" style="fill:#263238"></path><path d="M355.88,248a.49.49,0,0,1-.43-.23c-2.71-4.43-7.25-11.66-7.86-12.18l-.13-.07C344,233.37,338,228.86,337,222.27c-1.13-7.24,7.25-11,9-11.69a44.51,44.51,0,0,1,1.71-9.57c1.44-4.58,8.64-8.35,9.63-8.85a24,24,0,0,1,5.89-4.86c4.28-2.68,15.05-4.06,18.85-2.93,3.44,1,19.67,7.72,21.77,9.47.39.33,9.63,8.13,9.63,12.17,0,3.37-1.42,21.41-1.48,22.17-.39,1.93-2.33,11.32-4.1,12.64-1.49,1.12-4.23-.66-7.14-2.54-1.05-.68-2.14-1.39-3.1-1.9a18.72,18.72,0,0,1-4-2.65c-.52.13-1.78.45-4.08,1.07-1.57.42-4.1.37-7.59.3a135.14,135.14,0,0,0-14.58.3c-8.89.72-10.09,1.92-10.23,2.11h0l-.74,10a.49.49,0,0,1-.38.45Zm22.47-63c-4.64,0-11.54,1.25-14.62,3.18a22.65,22.65,0,0,0-5.7,4.71.49.49,0,0,1-.18.14c-.08,0-7.83,3.9-9.21,8.31A44.26,44.26,0,0,0,347,211a.48.48,0,0,1-.34.44c-.09,0-9.78,3.5-8.66,10.71,1,6.43,7.35,10.89,10,12.51l.17.1c.66.42,4.88,7.16,7.34,11.16l.62-8.38a.94.94,0,0,1,.17-.55c.81-1.16,4.5-2,11-2.55a137.28,137.28,0,0,1,14.69-.3c3.42.06,5.88.11,7.31-.27,3.16-.85,4.38-1.14,4.38-1.14a.52.52,0,0,1,.51.18s.77.92,4,2.63c1,.53,2.1,1.25,3.17,1.94,2.25,1.46,5.06,3.28,6,2.58,1.13-.84,2.87-7.79,3.71-12,0-.13,1.46-18.71,1.47-22.05,0-3-6.7-9.23-9.28-11.39-1.84-1.54-17.63-8.17-21.41-9.28A12.54,12.54,0,0,0,378.35,185ZM357.1,237.53Zm.53-45h0Z" style="fill:#263238"></path><path d="M352,233.05s6.77,23.28,7.49,28.11c.63,4.17,5.66,8.34,8.47,11.1s13,13.8,17.23,9.78c2.67-2.53,12.8-12.36,15.72-16.36s3.48-9.85,4.46-13.52l1-3.68s4.86-3.1,5.59-7.25,3.17-13.46-.47-13.09-3.89,6.22-4.14,7.93-2.18.08-3.39-1.09-4.37-1.29-5.82-2.94,1.95-14.39.25-13.35-2.92,10.06-13.84,10.71a73.8,73.8,0,0,1-18.44-1S361.23,236.34,352,233.05Z" style="fill:#fff"></path><path d="M382.93,283.41c-4.62,0-11.27-6.71-14.43-9.9l-.88-.89-1.33-1.27c-2.83-2.69-6.72-6.37-7.28-10.11-.71-4.74-7.41-27.82-7.48-28.05a.49.49,0,0,1,.14-.5.48.48,0,0,1,.51-.11c8.73,3.12,13.43-4.37,13.48-4.45a.5.5,0,0,1,.54-.22,74.57,74.57,0,0,0,18.3,1c7.92-.47,10.53-5.46,12.09-8.44a5.74,5.74,0,0,1,1.52-2.2.73.73,0,0,1,.81,0c.66.43.53,1.82-.06,6-.38,2.72-1,6.82-.37,7.48a7.27,7.27,0,0,0,3.14,1.62,7.29,7.29,0,0,1,2.65,1.29c1.91,1.84,2.43,1.69,2.45,1.68s.08-.09.11-.3.05-.4.08-.65c.27-2.38.84-7.32,4.5-7.7a1.9,1.9,0,0,1,1.67.59c1.47,1.61.74,6-.27,11.08-.15.74-.29,1.42-.39,2-.69,3.92-4.75,6.87-5.65,7.47l-.92,3.49c-.23.87-.44,1.88-.66,2.94-.71,3.4-1.6,7.64-3.88,10.76-2.95,4-13.19,14-15.77,16.42A3.71,3.71,0,0,1,382.93,283.41Zm-30.18-49.6c1.27,4.4,6.6,23,7.25,27.28.51,3.4,4.25,7,7,9.54l1.34,1.28c.25.24.55.55.89.9,3.32,3.34,12.11,12.21,15.65,8.86,2.57-2.43,12.75-12.31,15.65-16.28,2.16-2.95,3-7.07,3.71-10.37.22-1.08.44-2.1.67-3l1-3.68a.51.51,0,0,1,.21-.29c.05,0,4.68-3,5.37-6.92.1-.58.24-1.27.39-2,.65-3.3,1.76-8.84.51-10.21a.92.92,0,0,0-.83-.27c-2.86.3-3.37,4.71-3.61,6.82,0,.27-.06.5-.08.68a1.24,1.24,0,0,1-.77,1.11c-.76.26-1.83-.33-3.47-1.91a6.84,6.84,0,0,0-2.28-1.06,8.08,8.08,0,0,1-3.57-1.9c-.83-.95-.49-3.89.13-8.29a37.71,37.71,0,0,0,.49-4.7,13.24,13.24,0,0,0-.88,1.53c-1.55,3-4.43,8.47-12.92,9a77.15,77.15,0,0,1-18.25-1C365.32,230.34,360.64,236.1,352.75,233.81Z" style="fill:#263238"></path><path d="M364.31,254.77c-3.16,0-6.3-.53-7.35-1.9-1.67-2.17-4.13-10.1-3.15-11.12.19-.2.75-.78,22.16,0a.47.47,0,0,1,.37.19.49.49,0,0,1,.1.41c-.21,1-2.15,10-5.09,11.32A19.46,19.46,0,0,1,364.31,254.77Zm-9.79-12.27c-.16,1,1.56,7.59,3.23,9.76,1.55,2,10.38,1.84,13.18.53,2-.91,3.73-7.09,4.4-10C367.73,242.47,356.05,242.18,354.52,242.5Z" style="fill:#263238"></path><path d="M393.37,255c-2.89,0-6.23-.43-7.87-1.27-2.3-1.17-5.83-10.38-6.22-11.43a.48.48,0,0,1,.05-.45.52.52,0,0,1,.39-.23l23.78-1.09a.48.48,0,0,1,.39.16.47.47,0,0,1,.13.39c-.17,1.59-1,9.56-1.46,10.41-.49,1-2.9,2.76-6,3.29A20.49,20.49,0,0,1,393.37,255ZM380.46,242.6c1.49,3.85,4.1,9.54,5.49,10.25,2.14,1.09,7.64,1.44,10.48,1s4.95-2.16,5.24-2.74.82-5.16,1.29-9.49Z" style="fill:#263238"></path><path d="M376,242.78a.51.51,0,0,1-.5-.49.49.49,0,0,1,.48-.51l3.8-.15a.5.5,0,0,1,.51.49.49.49,0,0,1-.48.51l-3.79.15Z" style="fill:#263238"></path><path d="M403.52,241.54a.54.54,0,0,1-.21,0,.5.5,0,0,1-.24-.67l3.81-7.93a.49.49,0,0,1,.66-.24.5.5,0,0,1,.24.67L404,241.26A.48.48,0,0,1,403.52,241.54Z" style="fill:#263238"></path><path d="M367,250.19a7.91,7.91,0,0,1-4.52-1.64.49.49,0,0,1-.07-.7.5.5,0,0,1,.7-.07c.17.14,4.09,3.28,7.52-.27a.49.49,0,0,1,.7,0,.5.5,0,0,1,0,.71A5.94,5.94,0,0,1,367,250.19Z" style="fill:#263238"></path><path d="M391.2,249.49a13.35,13.35,0,0,1-4.66-1,.5.5,0,1,1,.39-.92c.05,0,5.31,2.21,7.83-.41a.5.5,0,0,1,.71,0,.5.5,0,0,1,0,.71A5.74,5.74,0,0,1,391.2,249.49Z" style="fill:#263238"></path><path d="M372,242.13a.39.39,0,0,1-.18,0c-.07,0-6.9-2.65-12.06-1.12a.5.5,0,1,1-.29-.95c5.5-1.63,12.42,1,12.71,1.14a.5.5,0,0,1-.18,1Z" style="fill:#263238"></path><path d="M383.14,241.11a.51.51,0,0,1-.49-.41.5.5,0,0,1,.4-.58c.36-.07,8.95-1.74,14-.72a.49.49,0,0,1,.39.59.5.5,0,0,1-.59.39c-4.84-1-13.5.7-13.59.72Z" style="fill:#263238"></path><path d="M378.4,265.28c-1.71,0-3.25-1.67-3.69-2.31s-.36-3.21-.28-4.7a.49.49,0,0,1,.53-.47.5.5,0,0,1,.47.53,16.51,16.51,0,0,0,.12,4.09c.28.41,1.73,2.06,3.09,1.84a18,18,0,0,0,4.6-2.3.5.5,0,1,1,.56.83c-.14.09-3.31,2.18-5,2.46A2.69,2.69,0,0,1,378.4,265.28Z" style="fill:#263238"></path><path d="M378.58,269.15a11.2,11.2,0,0,1-5.74-1.58.51.51,0,0,1-.13-.69.49.49,0,0,1,.69-.13,10,10,0,0,0,11.22-.64.5.5,0,0,1,.7.12.49.49,0,0,1-.12.69A11.14,11.14,0,0,1,378.58,269.15Z" style="fill:#263238"></path></g><g id="freepik--character-3--inject-67"><path d="M555.62,196.36s11.5-22.23,16-22.08,4.54,7.88,4.54,7.88,8.74-6.65,9.88-4l1.15,2.61S607.93,186,616,195.83s12,20.45,8.34,28.16-10.42,33.36-10.42,33.36L616.69,268,585.6,286.4l-7.27-13.35s-16,4.72-18,2.75-10.48-27.9-10.48-27.9l-9.74-6.71s8.48-18.75,9.21-23.77S553.05,202.65,555.62,196.36Z" style="fill:#fff"></path><path d="M585.6,286.9l-.13,0a.48.48,0,0,1-.3-.24l-7.09-13c-3.42,1-16,4.51-18.11,2.52s-9.47-24.62-10.55-28l-9.6-6.61a.5.5,0,0,1-.17-.62c.08-.19,8.45-18.74,9.16-23.63.76-5.22,3.9-15.16,6.35-21.18v0c1.19-2.3,11.71-22.35,16.39-22.35h.05c3.94.13,4.8,5.25,5,7.43,1.93-1.4,6.78-4.68,8.89-4.12a1.44,1.44,0,0,1,1,.84l1,2.39c2.44.65,21.14,5.84,28.85,15.19,8.73,10.59,11.87,21.32,8.41,28.7s-9.84,31.17-10.36,33.14l2.74,10.49a.51.51,0,0,1-.23.56l-31.08,18.43A.59.59,0,0,1,585.6,286.9Zm-7.27-14.35a.51.51,0,0,1,.44.26l7,12.89,30.31-18-2.68-10.26a.53.53,0,0,1,0-.25c.28-1.05,6.85-25.77,10.45-33.44,3.3-7,.2-17.35-8.27-27.63-7.87-9.56-28.36-14.87-28.57-14.92a.5.5,0,0,1-.33-.29l-1.14-2.61a.49.49,0,0,0-.34-.28c-1.55-.4-6.21,2.55-8.78,4.51a.53.53,0,0,1-.53.05.54.54,0,0,1-.28-.44c0-.08-.12-7.26-4.06-7.39h0c-3,0-11.09,13.33-15.47,21.79-2.42,6-5.52,15.78-6.27,20.92-.68,4.69-7.83,20.76-9.07,23.52l9.4,6.48a.53.53,0,0,1,.19.25c3.37,10.38,8.9,26.31,10.35,27.7,1.27,1.22,11-.94,17.52-2.87Z" style="fill:#263238"></path><path d="M554.71,254.63a2,2,0,0,1-1.16-.33.5.5,0,0,1-.1-.7.49.49,0,0,1,.69-.1,1.33,1.33,0,0,0,1,.09c.76-.19,2-1,3.49-3.75a.5.5,0,1,1,.88.48c-1.36,2.51-2.78,3.94-4.2,4.25A2.28,2.28,0,0,1,554.71,254.63Z" style="fill:#263238"></path><path d="M555.62,196.36s11.5-22.23,16-22.08,4.54,7.88,4.54,7.88,8.74-6.65,9.88-4l1.15,2.61S607.93,186,616,195.83s12,20.45,8.34,28.16c-2.79,6-7.49,22.63-9.48,29.89a25.6,25.6,0,0,1-6.93,1.92c-10,1.12-19.67-7.83-19.67-7.83s5.84-3.95,3.67-12.53-8.1-8.68-8.1-8.68-3.15,6.84-7.92,5.67,3.08-8.29,3.43-12.09-4.45-7.54-5.83-9.71,6-3.61,8.26-5.77-14.29-4.63-18-5.76,3.2-1.68,6.33-4.83S555.62,196.36,555.62,196.36Z" style="fill:#263238"></path><path d="M606.14,256.4c-9.41,0-17.85-7.72-18.23-8.07a.5.5,0,0,1,.06-.78c.23-.15,5.52-3.87,3.47-12-1.79-7.07-6.12-8.12-7.32-8.27-.72,1.4-3.79,6.74-8.34,5.63A2.38,2.38,0,0,1,574,231.6c-.62-1.56.83-3.85,2.37-6.29,1.14-1.82,2.33-3.7,2.45-5,.24-2.52-2.07-5.11-3.93-7.18a18.93,18.93,0,0,1-1.82-2.23,1.42,1.42,0,0,1-.19-1.21c.36-1.18,2.27-2,4.48-3a16.16,16.16,0,0,0,4-2.2l.06-.07c-.31-1.1-8.57-2.82-12.54-3.64-2.28-.48-4.26-.89-5.27-1.2-.72-.22-1.38-.51-1.4-1.09s.83-1.05,2.39-1.68a15.52,15.52,0,0,0,5.12-2.89.79.79,0,0,0,.13-.14c-1.42-.28-8.25,1.31-14.15,3.06a.51.51,0,0,1-.53-.16.52.52,0,0,1-.06-.55c1.2-2.3,11.78-22.55,16.44-22.35,3.94.13,4.8,5.25,5,7.43,1.93-1.4,6.78-4.68,8.89-4.12a1.44,1.44,0,0,1,1,.84l1,2.39c2.44.65,21.14,5.84,28.85,15.19,8.73,10.59,11.87,21.32,8.41,28.7C622,230.16,617.24,247,615.33,254a.5.5,0,0,1-.29.33,26.68,26.68,0,0,1-7.07,2C607.36,256.36,606.75,256.4,606.14,256.4ZM589,248c2,1.68,10.36,8.28,18.83,7.32a24.93,24.93,0,0,0,6.57-1.78c2-7.15,6.66-23.78,9.45-29.74,3.3-7,.2-17.35-8.27-27.63-7.87-9.56-28.36-14.87-28.57-14.92a.5.5,0,0,1-.33-.29l-1.14-2.61a.49.49,0,0,0-.34-.28c-1.55-.4-6.21,2.55-8.78,4.51a.53.53,0,0,1-.53.05.54.54,0,0,1-.28-.44c0-.08-.12-7.26-4.06-7.39h0c-2.94,0-10.47,12.3-14.94,20.77,6.34-1.84,13.52-3.58,14.29-2.27.23.39.1.84-.41,1.35a16.42,16.42,0,0,1-5.45,3.1,16.1,16.1,0,0,0-1.59.71,3.87,3.87,0,0,0,.51.18c1,.3,2.93.71,5.18,1.18,8.69,1.81,12.9,2.92,13.3,4.38a1,1,0,0,1-.34,1,16.47,16.47,0,0,1-4.33,2.38c-1.73.77-3.7,1.63-3.92,2.38a.42.42,0,0,0,.07.38,21.66,21.66,0,0,0,1.72,2.09c2,2.22,4.46,5,4.19,7.94-.15,1.55-1.4,3.54-2.61,5.45s-2.71,4.31-2.28,5.38c.14.35.49.58,1.08.73,4.32,1.06,7.31-5.33,7.34-5.39a.47.47,0,0,1,.46-.3c.26,0,6.34.2,8.59,9.05C594.25,242.61,590.44,246.74,589,248Z" style="fill:#263238"></path><path d="M553.84,224.93c-.11,2,.51,3.75,1.39,3.8s1.68-1.58,1.79-3.63-.51-3.74-1.39-3.79S554,222.88,553.84,224.93Z" style="fill:#263238"></path><path d="M560,217.72a.49.49,0,0,1-.45-.29s-2.11-4.52-4.86-4.88c-1.13-.15-2.27.44-3.38,1.77a.49.49,0,0,1-.7.07.51.51,0,0,1-.06-.71c1.34-1.61,2.78-2.32,4.27-2.12,3.3.44,5.54,5.25,5.64,5.45a.49.49,0,0,1-.46.71Z" style="fill:#263238"></path><path d="M581.11,254.27h0a.5.5,0,0,1-.48-.52l.19-5.59a.5.5,0,0,1,.48-.48l7-.21h0a.5.5,0,0,1,.5.48.5.5,0,0,1-.49.52l-6.48.19-.17,5.13A.5.5,0,0,1,581.11,254.27Z" style="fill:#263238"></path><path d="M574.45,291.13s-5.72,5.35-6.43,8.57-1.07,6.07-1.07,6.07-10.36,14.28-11.43,22.14,2.14,25,2.14,25l20.72-61.42Z" style="fill:#263238"></path><path d="M557.66,353.4h0a.49.49,0,0,1-.46-.4c-.13-.71-3.21-17.31-2.14-25.16,1-7.62,10.43-20.85,11.44-22.26.08-.6.43-3.17,1.06-6,.74-3.33,6.34-8.6,6.58-8.83a.52.52,0,0,1,.38-.13l3.93.36a.5.5,0,0,1,.43.65l-20.71,61.42A.5.5,0,0,1,557.66,353.4Zm17-61.75c-.92.89-5.51,5.42-6.12,8.16-.7,3.15-1.06,6-1.07,6a.5.5,0,0,1-.09.23c-.1.14-10.29,14.27-11.33,21.91-.84,6.15,1,18.22,1.8,22.91l19.88-59ZM567,305.77h0Z" style="fill:#263238"></path><path d="M617.4,256.05s-42.74,30.47-43,31.37-.45,9.73-.45,9.73l49.3-32.57Z" style="fill:#fff"></path><path d="M574,297.65a.5.5,0,0,1-.24-.06.49.49,0,0,1-.26-.45c0-.91.23-8.91.47-9.84.18-.72,14.7-11.37,43.16-31.66a.51.51,0,0,1,.7.12l5.88,8.54a.51.51,0,0,1,.08.38.49.49,0,0,1-.22.32l-49.29,32.57A.57.57,0,0,1,574,297.65Zm.92-10c-.14.86-.3,5.31-.39,8.57l48.07-31.75-5.3-7.7C600.79,268.51,576.41,286.07,574.9,287.63Z" style="fill:#263238"></path><path d="M574,297.15s-11.76,20.58-12.44,23.74-7.69,47.94-7.69,47.94L545,423.78H656.07s-2.42-22.45-3.78-40.77-2-45.3-8.66-69.29c-3.75-13.49-20.35-49.14-20.35-49.14Z" style="fill:#2975D1"></path><path d="M656.07,424.28H545a.52.52,0,0,1-.38-.17.52.52,0,0,1-.11-.4l8.83-55c.29-1.82,7-44.82,7.69-48s12-23.05,12.5-23.89a.41.41,0,0,1,.15-.17L623,264.17a.5.5,0,0,1,.73.2c.17.36,16.67,35.84,20.38,49.22,5.56,20,6.93,41.88,8,59.46.22,3.52.43,6.85.66,9.93,1.34,18.1,3.75,40.53,3.77,40.75a.51.51,0,0,1-.12.39A.52.52,0,0,1,656.07,424.28Zm-110.46-1h109.9c-.38-3.57-2.49-23.7-3.72-40.23-.23-3.09-.43-6.42-.65-9.94-1.1-17.53-2.46-39.36-8-59.25-3.45-12.41-18-44.06-20.08-48.54L574.35,297.5c-4.07,7.13-11.8,21.07-12.32,23.5-.67,3.11-7.61,47.46-7.68,47.91Z" style="fill:#263238"></path><path d="M520.37,363.85s-5.75-10.28-7-11.71-7-3.5-8.63-4.11-15.21-5.14-16-5.14-1.85,1.85-1.64,3.9,3.7,4.52,4.52,4.73-10.48.2-14.39.62-11.3,1.85-11.92,3.49,0,3.29,2.26,3.49a38.76,38.76,0,0,0,6.58-.41l10.69,1s-13.77,2.05-15.83,2.47-3.29,3.08-2.26,4.52,7,.61,7,.61l10.07-.61s-13.15,4.11-13.77,4.93a2.69,2.69,0,0,0,1.64,3.7c1.85.41,10.49-.62,10.49-.62l4.31.62s-6.16.82-6.16,1.64,0,2.06,1.43,2.06,10.9-.21,10.9-.21,4.31,2.47,8,2.26,18.91-2.05,18.91-2.05Z" style="fill:#fff"></path><path d="M500.19,381.62a18.21,18.21,0,0,1-7.69-2.27c-1.21,0-9.41.21-10.77.21-1.93,0-1.93-1.79-1.93-2.56,0-.3,0-.92,3.35-1.61l-1-.14c-.86.1-8.74,1-10.58.6a3.17,3.17,0,0,1-1.94-4.49c.48-.64,5.83-2.48,10.18-3.89l-6.05.37c-1,.14-6.28.78-7.42-.82a3,3,0,0,1-.2-2.87,3.93,3.93,0,0,1,2.77-2.44c1.35-.27,7.59-1.22,11.83-1.86l-6.59-.64a38.58,38.58,0,0,1-6.63.41,3.12,3.12,0,0,1-2.54-1.35,3.17,3.17,0,0,1-.14-2.82c.94-2.5,12.22-3.8,12.33-3.81,2.14-.23,6.4-.33,9.82-.41l3-.08c-1.42-1-3.21-2.72-3.37-4.31a5.25,5.25,0,0,1,1.06-3.88,1.47,1.47,0,0,1,1.08-.57c1,0,14.94,4.69,16.21,5.17l.43.16c3.55,1.32,7.32,2.83,8.4,4.09,1.25,1.46,6.81,11.37,7,11.8a.49.49,0,0,1,.06.27l-.82,15.2a.49.49,0,0,1-.44.47c-.62.08-15.27,1.86-18.94,2.06Zm-7.56-3.27a.47.47,0,0,1,.25.07s4.21,2.4,7.73,2.19c3.3-.18,16-1.7,18.46-2l.79-14.64c-2-3.58-5.92-10.41-6.86-11.51s-6.27-3.17-8-3.8l-.43-.17c-2.09-.78-15-5-15.87-5.1a.66.66,0,0,0-.33.24,4.33,4.33,0,0,0-.8,3.11c.17,1.76,3.44,4.12,4.14,4.29a.57.57,0,0,1,.42.57c-.06.51-.06.51-5.13.63-3.41.08-7.64.18-9.74.4-4.87.52-11.08,2-11.51,3.17a2.17,2.17,0,0,0,.06,1.94,2.21,2.21,0,0,0,1.78.88,38.45,38.45,0,0,0,6.46-.4h.12l10.69,1a.51.51,0,0,1,.45.49.5.5,0,0,1-.43.5c-.14,0-13.78,2.06-15.8,2.47a2.92,2.92,0,0,0-2,1.82,2,2,0,0,0,.08,1.92c.59.82,4.16.73,6.51.41l10.11-.62a.48.48,0,0,1,.52.41.49.49,0,0,1-.34.56c-6.11,1.91-12.94,4.24-13.54,4.79a2.05,2.05,0,0,0,0,1.6,1.93,1.93,0,0,0,1.35,1.28c1.46.32,7.94-.34,10.32-.62h.13l4.31.61a.51.51,0,0,1,.43.5.5.5,0,0,1-.43.49,23.31,23.31,0,0,0-5.73,1.28c0,1.05.17,1.43.93,1.43,1.42,0,10.79-.21,10.89-.21Z" style="fill:#263238"></path><path d="M503.84,365.49a.52.52,0,0,1-.29-.09A14,14,0,0,1,497.61,355l-6.23-3a.5.5,0,1,1,.44-.9l6.5,3.19a.49.49,0,0,1,.28.45,13.16,13.16,0,0,0,5.53,9.87.51.51,0,0,1,.12.7A.49.49,0,0,1,503.84,365.49Z" style="fill:#263238"></path><path d="M487.09,374.34a.49.49,0,0,1-.47-.35c-1-3.12-2.36-15.36-2.41-15.88a.49.49,0,0,1,.44-.55.5.5,0,0,1,.55.44c0,.12,1.44,12.67,2.37,15.69a.5.5,0,0,1-.33.63Z" style="fill:#263238"></path><polygon points="557.78 366.28 529.55 364.81 529.55 380.42 554.2 383.8 557.78 366.28" style="fill:#2975D1"></polygon><path d="M554.2,384.3h-.07l-24.64-3.37a.51.51,0,0,1-.44-.5V364.81a.52.52,0,0,1,.16-.37.46.46,0,0,1,.37-.13l28.22,1.48a.44.44,0,0,1,.37.19.48.48,0,0,1,.1.4l-3.59,17.52A.48.48,0,0,1,554.2,384.3ZM530.05,380l23.75,3.25,3.37-16.49-27.12-1.42Z" style="fill:#263238"></path><polygon points="529.55 364.81 520.37 363.54 519.48 379.16 529.55 380.42 529.55 364.81" style="fill:#fff"></polygon><path d="M529.55,380.92h-.06l-10.08-1.27a.49.49,0,0,1-.43-.52l.89-15.62a.54.54,0,0,1,.18-.36.6.6,0,0,1,.39-.11l9.18,1.27a.51.51,0,0,1,.43.5v15.61a.53.53,0,0,1-.16.38A.52.52,0,0,1,529.55,380.92Zm-9.55-2.2,9,1.14V365.24l-8.21-1.13Z" style="fill:#263238"></path><path d="M610.47,299.59s-8.49-6.12-13.58-5.1-20,6.11-23.43,12.9S549.36,376,549.36,376l-78.72-5.83-2.91,28.44s84.68,17.79,91.47,18.81,14.26,1,17.66-2.37,39-80.13,39-80.13" style="fill:#2975D1"></path><path d="M566.47,418.49a50.72,50.72,0,0,1-7.34-.6c-6.73-1-90.65-18.64-91.5-18.82a.5.5,0,0,1-.4-.54l2.92-28.45a.48.48,0,0,1,.53-.44L549,375.45c1.88-5.61,20.73-61.74,24-68.28,3.53-7.05,18.88-12.19,23.78-13.17,5.23-1.06,13.61,4.92,14,5.18a.5.5,0,0,1-.59.81c-.08-.06-8.38-6-13.19-5s-19.71,5.92-23.07,12.64S550,375.51,549.83,376.13a.48.48,0,0,1-.51.34l-78.23-5.8-2.82,27.52c6.62,1.39,84.56,17.74,91,18.71,8.4,1.26,14.52.47,17.22-2.24s26.63-53.47,39-80a.5.5,0,1,1,.9.42c-1.46,3.14-35.72,76.85-39.14,80.27C574.84,417.74,570.73,418.49,566.47,418.49Z" style="fill:#263238"></path><polygon points="470.64 370.14 457.88 368.34 456.78 392.63 467.95 394.33 470.64 370.14" style="fill:#fff"></polygon><path d="M468,394.83h-.08l-11.18-1.7a.49.49,0,0,1-.42-.51l1.1-24.29a.5.5,0,0,1,.56-.47l12.77,1.79a.5.5,0,0,1,.43.55l-2.69,24.19a.46.46,0,0,1-.19.34A.5.5,0,0,1,468,394.83ZM457.3,392.2l10.22,1.55,2.57-23.19-11.74-1.64Z" style="fill:#263238"></path><path d="M457.88,368.34s-6.5-8.28-7.84-11.64-8.29-3.81-11.43-4.71-7.61-2.69-8.06-1.12-.67,4.93,1.12,6.27,6.05,2.24,7.17,3.14l2.24,1.79-20.39,2s-9.41-1.35-13.66,0-7.62,1.34-7.84,3.13.22,4.26,1.34,4.48,4.71-.22,5.38-.22c0,0-2.47,2.46-2.24,3.36s1.79,3.36,2.69,3.36,6.49.45,7.39.67,4.93,4.26,5.82,4.71,7.17,2.68,7.17,2.68a18.69,18.69,0,0,0,6.72,2.92c4.48,1.12,23.32,3.45,23.32,3.45Z" style="fill:#fff"></path><path d="M456.78,393.13h-.06c-.77-.1-18.92-2.36-23.38-3.47a19.6,19.6,0,0,1-6.84-3c-.75-.27-6.28-2.25-7.15-2.69a18.85,18.85,0,0,1-2.57-2.1,22.33,22.33,0,0,0-3.16-2.56c-.81-.21-6.29-.66-7.26-.66-1.31,0-2.95-2.84-3.18-3.74-.18-.75.68-2,1.49-2.89a20,20,0,0,1-4.24.12c-1.57-.31-2-3.19-1.74-5,.2-1.58,2-2,4.59-2.6,1.07-.25,2.29-.54,3.6-.95,4.18-1.32,12.93-.15,13.82,0l19.1-1.89-1.28-1a12.68,12.68,0,0,0-2.81-1.19,17.49,17.49,0,0,1-4.34-1.94c-1.95-1.46-1.83-5-1.3-6.81a1.22,1.22,0,0,1,.61-.75c1.07-.58,3.17,0,6.24,1,.63.2,1.25.4,1.83.56s1.63.38,2.61.58c3.57.7,8,1.58,9.14,4.42,1.3,3.26,7.7,11.44,7.77,11.53a.48.48,0,0,1,.1.33l-1.09,24.28a.5.5,0,0,1-.18.36A.47.47,0,0,1,456.78,393.13ZM405.91,371a.5.5,0,0,1,.35.85c-1.15,1.16-2.15,2.53-2.11,2.89.24,1,1.73,3,2.21,3,.89,0,6.56.45,7.51.69.58.14,1.74,1.14,3.58,2.78a22.86,22.86,0,0,0,2.35,2c.68.34,4.95,1.89,7.11,2.66l.14.08a18.39,18.39,0,0,0,6.53,2.82c4,1,19.62,3,22.72,3.38l1.07-23.56c-.91-1.17-6.53-8.45-7.8-11.63-.93-2.33-5.25-3.19-8.4-3.81-1-.2-1.95-.39-2.7-.6-.58-.16-1.21-.36-1.85-.56-2-.62-4.68-1.47-5.46-1.05a.19.19,0,0,0-.13.15c-.39,1.35-.67,4.53.94,5.73a17.08,17.08,0,0,0,4.07,1.8,12.83,12.83,0,0,1,3.11,1.35l2.24,1.79a.49.49,0,0,1,.16.53.48.48,0,0,1-.43.36l-20.38,2h-.12c-.09,0-9.34-1.31-13.44,0-1.34.43-2.58.72-3.68,1-2.15.5-3.7.87-3.82,1.76-.21,1.73.28,3.79.95,3.92a21.9,21.9,0,0,0,4-.14C405.22,371,405.7,371,405.91,371Z" style="fill:#263238"></path><path d="M431.69,387h-.07c-2.45-.36-4.76-.8-4.79-.8a.5.5,0,0,1,.19-1s2.31.44,4.74.79a.49.49,0,0,1,.42.56A.5.5,0,0,1,431.69,387Z" style="fill:#263238"></path><path d="M427.64,372.65h-.06l-10.75-1.12-10.9.45a.51.51,0,0,1-.52-.48.5.5,0,0,1,.48-.52l11-.45,10.83,1.12a.5.5,0,0,1,.44.55A.49.49,0,0,1,427.64,372.65Z" style="fill:#263238"></path><path d="M429.2,380.27h0l-9.41-.45-6.06-.45a.5.5,0,0,1-.46-.54.49.49,0,0,1,.53-.46l6.05.45,9.4.45a.5.5,0,0,1,0,1Z" style="fill:#263238"></path><path d="M677.62,424l6.25-62.48a15.32,15.32,0,0,0-14.72-16.84h0a15.32,15.32,0,0,0-15.71,13.17L644.07,424Z" style="fill:#263238"></path><path d="M677.62,424.49H644.07a.5.5,0,0,1-.38-.17.48.48,0,0,1-.12-.4l9.37-66.15a15.83,15.83,0,0,1,31.43,3.79L678.12,424A.5.5,0,0,1,677.62,424.49Zm-33-1h32.53l6.21-62a14.83,14.83,0,0,0-29.45-3.55Z" style="fill:#263238"></path></g><g id="freepik--character-1--inject-67"><path d="M188.52,252.38s-41,22-42.74,23.79-11.93,132.68-11.93,132.68l124.28-16.8s12.87-57.46,15.23-80.67,1.69-40.31,1-42.27-19.27-11.55-23.58-13.59S240,251.05,240,251.05Z" style="fill:#2975D1"></path><path d="M133.85,409.35a.49.49,0,0,1-.34-.14.5.5,0,0,1-.16-.4c1.7-21.88,10.27-131.14,12.07-133s38.66-21.63,42.86-23.88a.46.46,0,0,1,.22-.06l51.44-1.33a.32.32,0,0,1,.19,0c.07,0,6.6,2.46,10.88,4.49,2.22,1.05,23,11.49,23.84,13.88.75,2.17,1.33,19.76-1,42.48-2.34,23-15.11,80.15-15.24,80.73a.53.53,0,0,1-.42.39L133.92,409.34Zm54.8-156.47c-16.45,8.81-41.27,22.35-42.52,23.64-1.44,2.83-8.91,95.45-11.73,131.75L257.72,391.6c1.06-4.79,12.91-58.28,15.15-80.27,2.44-23.93,1.62-40.36,1-42.06S257,259,250.58,256c-4-1.88-9.91-4.13-10.71-4.43Z" style="fill:#263238"></path><path d="M192.08,383.85a.51.51,0,0,1-.45-.27.5.5,0,0,1,.22-.67c20.62-10.37,44-33.29,53.13-42.67a.5.5,0,0,1,.72.7c-11.35,11.69-33.39,32.8-53.4,42.86A.44.44,0,0,1,192.08,383.85Z" style="fill:#263238"></path><path d="M247.12,339.24a.45.45,0,0,1-.34-.14.49.49,0,0,1,0-.7c2.24-2.35,3.53-3.78,3.55-3.79a.5.5,0,0,1,.74.67s-1.32,1.45-3.57,3.81A.51.51,0,0,1,247.12,339.24Z" style="fill:#263238"></path><path d="M177.81,381.31a.5.5,0,0,1-.08-1,32.74,32.74,0,0,0,7.45-2.68.5.5,0,1,1,.42.9,33.51,33.51,0,0,1-7.7,2.77Z" style="fill:#263238"></path><path d="M190.16,376.21a.5.5,0,0,1-.23-.95c10.51-5.54,22.64-13.64,22.76-13.72a.5.5,0,1,1,.56.83c-.12.08-12.29,8.21-22.86,13.78A.46.46,0,0,1,190.16,376.21Z" style="fill:#263238"></path><path d="M192.88,393.26s-28.48-14.11-32-15.44-17.71,14.71-17.71,14.71l57.2,13.31Z" style="fill:#fff"></path><path d="M200.38,406.34h-.11L143.06,393a.5.5,0,0,1-.36-.34.52.52,0,0,1,.1-.48c2.41-2.72,14.61-16.24,18.26-14.85,3.5,1.32,30.88,14.89,32,15.46a.51.51,0,0,1,.21.2l7.5,12.57a.48.48,0,0,1,0,.55A.52.52,0,0,1,200.38,406.34Zm-56.27-14.11,55.24,12.85-6.82-11.43c-2.11-1-28.49-14.1-31.82-15.36C158.46,377.44,149.58,386.14,144.11,392.23Z" style="fill:#263238"></path><path d="M149.39,394.73a.52.52,0,0,1-.29-.09.51.51,0,0,1-.11-.7c.37-.51,9.12-12.47,13.64-14.19a.5.5,0,0,1,.65.29.49.49,0,0,1-.29.64c-4.25,1.62-13.1,13.73-13.19,13.85A.51.51,0,0,1,149.39,394.73Z" style="fill:#263238"></path><path d="M158,396.08a.49.49,0,0,1-.41-.78c.31-.45,7.73-11.11,10.46-13.25a.5.5,0,0,1,.61.79c-2.61,2-10.18,12.92-10.25,13A.49.49,0,0,1,158,396.08Z" style="fill:#263238"></path><path d="M164.91,397.51a.53.53,0,0,1-.24-.06.5.5,0,0,1-.19-.68c.23-.41,5.68-10.08,9-12a.5.5,0,0,1,.68.17.51.51,0,0,1-.17.69c-3.06,1.79-8.56,11.54-8.61,11.64A.5.5,0,0,1,164.91,397.51Z" style="fill:#263238"></path><path d="M182.24,401.45a.49.49,0,0,1-.28-.09l-.63-.43a78.77,78.77,0,0,0-7.25-4.61c-.61-.21-2.64.93-4.16,2.11a.5.5,0,0,1-.7-.08.5.5,0,0,1,.09-.7c.6-.47,3.66-2.79,5.1-2.28a66.58,66.58,0,0,1,7.48,4.73l.63.43a.5.5,0,0,1,.13.7A.49.49,0,0,1,182.24,401.45Z" style="fill:#263238"></path><path d="M274.38,269.11s-1.94,7.54-6.85,21.92-8.6,21.25-8.6,21.25l-11.3,68.82-54.75,12.16,7.5,12.58s31.51,2.8,47.35-1.15,22.66-6,23.46-7.76,7.95-40.6,7.62-66.67S277.83,267.22,274.38,269.11Z" style="fill:#2975D1"></path><path d="M223.37,407.29c-12.07,0-22.84-.94-23-1a.51.51,0,0,1-.38-.25l-7.51-12.57a.53.53,0,0,1,0-.46.52.52,0,0,1,.35-.29l54.43-12.09,11.23-68.48a.88.88,0,0,1,.05-.15c0-.07,3.74-7,8.58-21.18s6.82-21.81,6.84-21.88a.49.49,0,0,1,.24-.32,1,1,0,0,1,1,0c2.85,1.66,3.73,25.82,4.18,61.58.34,26.18-6.76,64.86-7.66,66.87-.84,1.85-6.17,3.66-23.8,8.05C241.29,406.81,232,407.29,223.37,407.29Zm-22.69-1.93c3,.25,32.1,2.54,46.93-1.15,11.72-2.92,22.32-5.69,23.12-7.49.61-1.35,7.92-40.2,7.58-66.45-.2-16-.73-58.2-3.55-60.64-.46,1.73-2.51,9.14-6.75,21.56a164.1,164.1,0,0,1-8.6,21.26l-11.28,68.73a.53.53,0,0,1-.39.41l-54.08,12Zm46.95-24.26h0Z" style="fill:#263238"></path><path d="M258.92,312.78a.45.45,0,0,1-.27-.08.5.5,0,0,1-.14-.69L275,287.41a.49.49,0,0,1,.69-.13.5.5,0,0,1,.14.69l-16.52,24.59A.48.48,0,0,1,258.92,312.78Z" style="fill:#263238"></path><path d="M263,311.86a.51.51,0,0,1-.4-.81l11.18-14.66a.5.5,0,0,1,.7-.09.51.51,0,0,1,.1.7l-11.18,14.66A.51.51,0,0,1,263,311.86Z" style="fill:#263238"></path><path d="M267.71,386.41a.51.51,0,0,1-.38-.18c-5.24-6.19-16.49-5.53-16.6-5.51a.5.5,0,0,1-.07-1c.48,0,11.87-.71,17.43,5.86a.51.51,0,0,1-.06.71A.49.49,0,0,1,267.71,386.41Z" style="fill:#263238"></path><line x1="198.81" y1="392" x2="207.4" y2="405.77" style="fill:#fff"></line><path d="M207.4,406.27A.51.51,0,0,1,207,406l-8.58-13.77a.49.49,0,0,1,.16-.69.48.48,0,0,1,.68.16l8.59,13.77a.48.48,0,0,1-.16.68A.42.42,0,0,1,207.4,406.27Z" style="fill:#263238"></path><path d="M250.17,377.76a.51.51,0,0,1-.4-.2.5.5,0,0,1,.1-.7c.24-.18,5.95-4.35,15.76-1.77a.5.5,0,1,1-.25,1c-9.35-2.46-14.86,1.56-14.91,1.6A.49.49,0,0,1,250.17,377.76Z" style="fill:#263238"></path><polygon points="227.91 405.09 242.59 406.66 239.84 428.4 224.51 427.6 227.91 405.09" style="fill:#fff"></polygon><path d="M239.84,428.9h0l-15.33-.8a.5.5,0,0,1-.36-.18.52.52,0,0,1-.1-.4l3.4-22.5a.51.51,0,0,1,.55-.43l14.67,1.58a.48.48,0,0,1,.34.18.52.52,0,0,1,.11.38l-2.75,21.73A.51.51,0,0,1,239.84,428.9Zm-14.75-1.77,14.31.74L242,407.11l-13.69-1.47Z" style="fill:#263238"></path><path d="M156.12,270.48s-23.25,10-24.46,15-14.65,59-20.16,87.35-7.48,48-5.67,49.19,31.33,6,66.81,7.41,50.3,1.95,51.84.39,4.27-23.54,3.43-24.75-80.34-14.75-80.34-14.75,20.47-69,20.45-71.71-10.51-21.14-14.62-26.17" style="fill:#2975D1"></path><path d="M215,431.27c-7.75,0-20.88-.49-42.33-1.32-35.15-1.37-65-6.2-67.06-7.49-2.57-1.65,1-26.93,5.45-49.71,3.26-16.73,9.77-45,19.35-84.05.4-1.63.68-2.77.82-3.32,1.23-5.12,22.34-14.32,24.75-15.36a.5.5,0,0,1,.39.92c-6.4,2.76-23.23,10.76-24.17,14.68-.13.55-.41,1.69-.81,3.32-9.59,39-16.09,67.28-19.35,84-5.82,30-7.16,47.53-5.88,48.68,1.56,1,30.59,5.93,66.55,7.33,33.34,1.29,50.08,1.94,51.47.53,1.22-1.23,4.08-21.65,3.39-24-2.94-1.21-49.24-9.36-80-14.6a.54.54,0,0,1-.34-.23.53.53,0,0,1,0-.41c5.69-19.17,20.45-69.39,20.43-71.57,0-2.45-10.19-20.57-14.51-25.85a.49.49,0,0,1,.07-.7.49.49,0,0,1,.7.07c4.15,5.06,14.72,23.63,14.74,26.47,0,2.68-18.26,64.39-20.31,71.33,29.83,5.08,79.28,13.67,80.11,14.86,1.09,1.55-2,23.85-3.48,25.38C224.1,430.93,221.36,431.27,215,431.27Z" style="fill:#263238"></path><path d="M124.31,399.14A.52.52,0,0,1,124,399a.49.49,0,0,1,0-.7c9.75-10.26,23.56-8.47,23.7-8.45a.5.5,0,0,1,.42.56.5.5,0,0,1-.56.43c-.14,0-13.45-1.73-22.83,8.15A.51.51,0,0,1,124.31,399.14Z" style="fill:#263238"></path><path d="M116.66,405.26l-.13,0a.51.51,0,0,1-.35-.62c1.55-5.66,7.52-11.68,7.77-11.94a.51.51,0,0,1,.71,0,.5.5,0,0,1,0,.71c-.06.06-6,6.09-7.51,11.5A.51.51,0,0,1,116.66,405.26Z" style="fill:#263238"></path><path d="M242.59,406.66s30.72-10.33,32.79-8.93,13.95,11.54,14.09,13-.23,5.23-1.38,5.78a26.81,26.81,0,0,1-3.28,1.14s-3.29,11.08-4.65,12.13-5.37,2-7.28,2.32-33-3.72-33-3.72Z" style="fill:#fff"></path><path d="M272.56,432.63c-3.95,0-29.73-3.34-32.78-3.74a.5.5,0,0,1-.44-.56l2.75-21.73a.51.51,0,0,1,.34-.41c7.26-2.44,31.12-10.29,33.23-8.88,1.53,1,14.12,11.49,14.31,13.4.1,1.06-.07,5.51-1.67,6.27a25.35,25.35,0,0,1-3.09,1.1c-.71,2.35-3.39,11.06-4.74,12.12s-5.53,2.07-7.5,2.41A2.19,2.19,0,0,1,272.56,432.63ZM240.4,428c12.49,1.62,31,3.87,32.4,3.66,2.18-.39,5.87-1.29,7.06-2.22.84-.66,3.12-7.35,4.47-11.88a.5.5,0,0,1,.34-.34,27.86,27.86,0,0,0,3.2-1.11c.78-.37,1.26-3.61,1.1-5.28-.34-1.35-11.46-11-13.87-12.66-1.46-.72-17.54,4-32.05,8.9Z" style="fill:#263238"></path><path d="M284.81,418.17a.51.51,0,0,1-.43-.24c-1-1.64-2.84-4.41-3.68-4.86-1.24-.66-8.42-3.28-8.49-3.31a.5.5,0,0,1,.34-.94c.3.11,7.33,2.67,8.62,3.37s3.79,4.77,4.07,5.23a.5.5,0,0,1-.18.68A.47.47,0,0,1,284.81,418.17Z" style="fill:#263238"></path><path d="M282.58,422.74a.51.51,0,0,1-.37-.17c-2.58-2.94-11-4.52-11.06-4.54a.48.48,0,0,1-.4-.58.5.5,0,0,1,.58-.4c.36.06,8.83,1.66,11.63,4.86a.51.51,0,0,1,0,.71A.5.5,0,0,1,282.58,422.74Z" style="fill:#263238"></path><path d="M279.62,427.88a33.46,33.46,0,0,1-9.24-1.89.5.5,0,0,1,.34-.94c.07,0,7.1,2.52,10.7,1.65a.5.5,0,0,1,.23,1A8.61,8.61,0,0,1,279.62,427.88Z" style="fill:#263238"></path><polygon points="205.37 291.61 213.47 305.4 200.82 400.36 209.82 415.85 226.79 398.44 217.11 305.48 226.56 287.92 216.08 279.69 205.37 291.61" style="fill:#fff"></polygon><path d="M209.82,416.34h-.06a.5.5,0,0,1-.37-.24l-9-15.49a.59.59,0,0,1-.06-.32L213,305.5l-8-13.64a.5.5,0,0,1,.05-.59l10.72-11.91a.51.51,0,0,1,.68-.06l10.48,8.22a.51.51,0,0,1,.13.63l-9.37,17.43,9.66,92.8a.52.52,0,0,1-.14.4l-17,17.41A.49.49,0,0,1,209.82,416.34Zm-8.48-16.09L209.92,415l16.35-16.77-9.66-92.72a.49.49,0,0,1,.06-.29l9.25-17.19-9.78-7.67L206,291.67l7.92,13.47a.52.52,0,0,1,.07.32Z" style="fill:#263238"></path><path d="M193.75,246.43l-7.35,4.06s-.07,14.41,3.82,27.15,7.38,21.27,7.38,21.27l19.1-10.3,18.81,11.82s2.57-13.53,1.38-25.9-6.38-26-6.38-26S203.93,241.5,193.75,246.43Z" style="fill:#2975D1"></path><path d="M235.51,300.93a.53.53,0,0,1-.27-.08l-18.56-11.66-18.85,10.16a.47.47,0,0,1-.4,0,.52.52,0,0,1-.3-.28c0-.08-3.54-8.7-7.39-21.32s-3.84-27.15-3.84-27.3a.49.49,0,0,1,.26-.43l7.35-4.06h0c10.22-5,36,1.74,37.1,2a.51.51,0,0,1,.34.3c.05.14,5.23,13.88,6.41,26.17s-1.36,25.9-1.39,26a.49.49,0,0,1-.29.36A.46.46,0,0,1,235.51,300.93ZM216.7,288.11a.42.42,0,0,1,.26.08l18.19,11.42c.5-3,2.26-14.49,1.24-25-1.08-11.26-5.56-23.78-6.26-25.67-2.72-.69-26.76-6.57-36.15-2l-7.08,3.91c0,2.11.28,15.18,3.8,26.71,3.3,10.82,6.35,18.68,7.15,20.72l18.61-10A.53.53,0,0,1,216.7,288.11Z" style="fill:#263238"></path><path d="M200.91,265.48s3.42,7.79,5.73,11.66,10.06,11.47,10.06,11.47,7.82-11.78,9.32-13.83l1.5-2.06s-10.08.95-12.32.31S200.91,265.48,200.91,265.48Z" style="fill:#263238"></path><path d="M216.7,289.11a.5.5,0,0,1-.35-.14c-.32-.32-7.83-7.69-10.14-11.57s-5.72-11.64-5.75-11.72a.49.49,0,0,1,.12-.57.5.5,0,0,1,.58-.07c4.15,2.38,12.45,7,14.18,7.51s9.35-.06,12.13-.33a.52.52,0,0,1,.48.25.5.5,0,0,1,0,.55l-1.5,2.05c-1.47,2-9.23,13.7-9.3,13.82a.55.55,0,0,1-.37.22ZM202,266.67c1.09,2.41,3.39,7.4,5.08,10.22,1.94,3.25,7.89,9.28,9.55,10.94,1.53-2.31,7.67-11.53,9-13.35l.84-1.16c-2.7.22-9.52.73-11.4.19S205.21,268.49,202,266.67Z" style="fill:#263238"></path><path d="M246.87,219.11s-3.93,20.5-3.86,23.23,1.82,11.06.61,14.24-14.76,16.88-19,20.2-10.37,3-13.69.23-14.56-14.78-16.42-18.21-3.87-12.53-3.87-12.53a23.18,23.18,0,0,1-8.58-8c-3.18-5.33-4.86-9-.54-11.5l-2-22.58s7.46-7.57,25.11-6.22S246.87,219.11,246.87,219.11Z" style="fill:#fff"></path><path d="M217.52,279.68a10.92,10.92,0,0,1-6.92-2.29c-3.24-2.72-14.62-14.8-16.54-18.35-1.72-3.19-3.53-11-3.87-12.43a23.58,23.58,0,0,1-8.57-8.09c-2.06-3.45-3.71-6.51-3.07-9a5.1,5.1,0,0,1,2.44-3l-2-22.27a.51.51,0,0,1,.14-.39c.32-.32,7.83-7.72,25.51-6.36s42.25,21.05,42.5,21.25a.53.53,0,0,1,.18.49c0,.2-3.92,20.47-3.85,23.12,0,.78.18,2,.37,3.53.5,3.8,1.11,8.53.2,10.9-1.25,3.28-14.94,17.12-19.16,20.42A12,12,0,0,1,217.52,279.68Zm-37.47-75.3,2,22.33a.51.51,0,0,1-.24.48,4.33,4.33,0,0,0-2.25,2.58c-.55,2.12,1,5,3,8.23a22.93,22.93,0,0,0,8.37,7.83.47.47,0,0,1,.27.34c0,.09,2,9.06,3.82,12.39s13.18,15.45,16.3,18.07c3,2.48,8.79,3.09,13.06-.24,4.51-3.52,17.74-17.08,18.85-20,.81-2.13.19-6.92-.26-10.41-.19-1.51-.36-2.81-.38-3.63-.07-2.61,3.31-20.41,3.81-23-2.56-2-25.33-19.6-41.71-20.86C188.82,197.25,181.23,203.33,180.05,204.38Z" style="fill:#263238"></path><path d="M189,231.3l4.2,10,2.5.28L194.4,234s10-5.34,10.49-5.75-2.2-13-2.31-14.16.63-5.3,14.75-1.06,14.61,9.31,21.59,10.55,7.66-1.51,7.66-1.51,7.6,1.8,11.82-3.86-8.24-12.33-8.24-12.33,2-10.64-3-15.3-9.52,0-9.47.62-18.13-12.27-27.14-12.84-29.38,13.25-32.9,20.25,3.85,28.16,3.85,28.16S186.1,225,189,231.3Z" style="fill:#263238"></path><path d="M195.7,242.05h-.06l-2.5-.28a.52.52,0,0,1-.41-.3l-4.19-10c-2.65-5.77-6.68-4.34-6.85-4.28a.48.48,0,0,1-.39,0,.53.53,0,0,1-.26-.29c-.3-.87-7.4-21.44-3.83-28.55,3.46-6.88,23.76-21.12,33.39-20.52,6.88.44,18.73,7.74,24.43,11.25,1,.6,1.92,1.18,2.42,1.46a6.6,6.6,0,0,1,2.3-1.85c1.5-.74,4.5-1.53,7.76,1.49,4.69,4.36,3.52,13.46,3.21,15.41,1.53.86,8,4.73,8.93,9a4.58,4.58,0,0,1-.85,3.86c-3.8,5.1-10.28,4.4-11.94,4.12-.53.84-2.31,2.47-8,1.45-3.21-.58-5.07-1.91-7.42-3.6a42.36,42.36,0,0,0-14.22-7c-9.31-2.8-12.42-1.8-13.45-1a1.71,1.71,0,0,0-.67,1.49c0,.33.33,1.81.66,3.52,2,10.2,1.9,10.74,1.47,11.08s-8,4.44-10.25,5.63l1.24,7.21a.47.47,0,0,1-.13.42A.48.48,0,0,1,195.7,242.05Zm-2.16-1.24,1.55.17-1.18-6.91a.48.48,0,0,1,.25-.52c3.74-2,9.34-5,10.3-5.63.07-1.11-1.08-7-1.71-10.18-.41-2.07-.64-3.25-.67-3.61a2.71,2.71,0,0,1,1-2.37c2.09-1.72,6.93-1.45,14.36.78A43.06,43.06,0,0,1,232,219.66c2.25,1.61,4,2.89,7,3.42,6.32,1.13,7.09-1.13,7.1-1.16a.5.5,0,0,1,.59-.35c.08,0,7.34,1.65,11.31-3.67a3.55,3.55,0,0,0,.67-3.05c-1-4.33-8.67-8.5-8.74-8.54a.49.49,0,0,1-.26-.53c0-.11,1.91-10.43-2.84-14.84a5.82,5.82,0,0,0-5.44-1.77,5.47,5.47,0,0,0-3.19,2.08.54.54,0,0,1-.24.38c-.36.23-.41.19-3.46-1.68-5.18-3.2-17.33-10.68-24-11.1-8.49-.55-28.82,12.81-32.42,20-3.11,6.19,2.71,24.29,3.73,27.33,1.35-.27,5.13-.48,7.61,4.94v0Zm44.66-49.66Z" style="fill:#263238"></path><path d="M232,259.17h-.07l-7.71-1a.49.49,0,0,1-.43-.56.5.5,0,0,1,.56-.43l7.14,1-.33-14.84a.49.49,0,0,1,.49-.51.47.47,0,0,1,.51.49l.34,15.42a.52.52,0,0,1-.17.38A.51.51,0,0,1,232,259.17Z" style="fill:#263238"></path><path d="M225.2,264.85a16.14,16.14,0,0,1-9-3.13.5.5,0,1,1,.61-.79c.07.05,6.25,4.77,12.66,2.07a.5.5,0,1,1,.39.93A11.94,11.94,0,0,1,225.2,264.85Z" style="fill:#263238"></path><path d="M216.32,244.12a13.42,13.42,0,0,1-4.9-1.06.51.51,0,0,1-.28-.65.49.49,0,0,1,.65-.28c7,2.76,9.05-1,9.14-1.19a.5.5,0,0,1,.89.46S220.37,244.12,216.32,244.12Z" style="fill:#263238"></path><path d="M237.09,241.35a6.66,6.66,0,0,1-3.35-.92.49.49,0,0,1-.13-.69.5.5,0,0,1,.69-.14,5.41,5.41,0,0,0,6.23-.49.51.51,0,0,1,.7.1.5.5,0,0,1-.1.7A6.55,6.55,0,0,1,237.09,241.35Z" style="fill:#263238"></path><path d="M214.58,253.12c-4.61,0-8.37-1.83-9.3-4-1-2.33-2.26-9.66-2.32-10a.52.52,0,0,1,.35-.57c.09,0,9.33-2.77,25.95-2.94a.51.51,0,0,1,.41.2.5.5,0,0,1,.07.46s-1.51,4.42-3,8.17l-.46,1.15c-1.23,3.2-2.3,6-8.09,7.14A17.92,17.92,0,0,1,214.58,253.12ZM204,239.41c.29,1.65,1.36,7.4,2.17,9.31.89,2.09,5.8,4.27,11.76,3.05,5.25-1.07,6.14-3.35,7.36-6.52l.46-1.17c1.16-2.85,2.31-6.08,2.78-7.45C214.51,236.84,206,238.89,204,239.41Z" style="fill:#263238"></path><path d="M236.7,249.17c-1.59,0-3-.4-3.75-1.65s-4-10.82-4.15-11.23a.49.49,0,0,1,0-.41.51.51,0,0,1,.33-.24c.16,0,15.92-3.47,20.56-4.26a.54.54,0,0,1,.41.11.49.49,0,0,1,.18.38,27.77,27.77,0,0,1-1.16,8.23c-1.28,3.62-4,6.9-6.43,7.81A19.37,19.37,0,0,1,236.7,249.17Zm-6.78-12.68c1.07,3.07,3.39,9.62,3.9,10.54,1.15,2.05,6.1.86,8.55-.05,2.19-.82,4.65-3.85,5.84-7.21a25.55,25.55,0,0,0,1.09-7.3C244.65,233.31,232.64,235.91,229.92,236.49Z" style="fill:#263238"></path><path d="M249.81,232.38a.51.51,0,0,1-.33-.13l-4.8-4.28a.5.5,0,1,1,.67-.75l4.79,4.28a.5.5,0,0,1-.33.88Z" style="fill:#263238"></path><path d="M203.46,239.55a.53.53,0,0,1-.24-.06l-14.46-7.75a.49.49,0,0,1-.2-.67.49.49,0,0,1,.67-.21l14.46,7.75a.5.5,0,0,1-.23.94Z" style="fill:#263238"></path><path d="M209.23,236.16a.49.49,0,0,1-.46-.3.48.48,0,0,1,.26-.65,29.25,29.25,0,0,1,14.2-1.65.51.51,0,0,1,.43.56.49.49,0,0,1-.56.43,28.86,28.86,0,0,0-13.68,1.57A.43.43,0,0,1,209.23,236.16Z" style="fill:#263238"></path><path d="M233.57,233.89a.56.56,0,0,1-.27-.08.51.51,0,0,1-.15-.69c.11-.16,2.58-3.88,9.78-2.79a.49.49,0,0,1,.41.57.5.5,0,0,1-.56.42c-6.52-1-8.7,2.21-8.79,2.34A.48.48,0,0,1,233.57,233.89Z" style="fill:#263238"></path></g><g id="freepik--Device--inject-67"><polygon points="504.1 447.88 479.89 435.66 587.38 435.66 618.57 447.88 504.1 447.88" style="fill:#fff"></polygon><path d="M621.22,448.38H504l-26.19-13.22,109.78,0Zm-117-1H615.93l-28.64-11.22H482Z" style="fill:#263238"></path><polygon points="515.79 447.44 495.06 436.98 587.1 436.98 613.81 447.44 515.79 447.44" style="fill:#fff"></polygon><path d="M616.45,447.94H515.67L493,436.48l94.32,0Zm-100.54-1h95.25L587,437.48H497.16Z" style="fill:#263238"></path><polygon points="504.1 447.88 618.57 447.88 634.18 374.2 519.72 374.2 504.1 447.88" style="fill:#fff"></polygon><path d="M619,448.38H503.49l15.82-74.68H634.8Zm-114.26-1H618.17l15.4-72.68H520.12Z" style="fill:#263238"></path><path d="M564.23,408.79c-2.89,2.87-3.11,7.33-.5,10s7.08,2.44,10-.43,3.11-7.32.49-9.95S567.12,405.92,564.23,408.79Z" style="fill:#fff"></path><path d="M568.31,421.1a6.79,6.79,0,0,1-6.89-7.27,8.16,8.16,0,0,1,2.46-5.39c3.08-3.06,7.86-3.25,10.67-.43s2.58,7.61-.5,10.67A8.18,8.18,0,0,1,568.31,421.1ZM569.62,407a7.35,7.35,0,0,0-7.2,6.87,5.88,5.88,0,0,0,1.67,4.52c2.42,2.43,6.57,2.24,9.25-.43s2.91-6.82.5-9.25A5.92,5.92,0,0,0,569.62,407Z" style="fill:#263238"></path></g><g id="freepik--Sheets--inject-67"><polygon points="347.15 427.6 297.74 449.8 387.25 454.81 428.07 429.03 347.15 427.6" style="fill:#fff"></polygon><path d="M387.25,455.31h0l-89.51-5a.5.5,0,0,1-.18-1L347,427.14a.52.52,0,0,1,.21,0l80.92,1.43a.5.5,0,0,1,.47.37.49.49,0,0,1-.21.55l-40.82,25.78A.5.5,0,0,1,387.25,455.31Zm-87.43-5.9,87.3,4.89,39.27-24.8-79.14-1.4Z" style="fill:#263238"></path><polygon points="354.26 428.1 311.36 456.24 402.7 464.08 417 428.56 354.26 428.1" style="fill:#fff"></polygon><path d="M402.7,464.58h0l-91.34-7.84a.5.5,0,0,1-.44-.37.49.49,0,0,1,.21-.54L354,427.69a.47.47,0,0,1,.28-.09l62.74.46a.53.53,0,0,1,.41.23.5.5,0,0,1,.05.46l-14.3,35.52A.51.51,0,0,1,402.7,464.58Zm-89.85-8.71,89.53,7.68,13.88-34.49-61.85-.46Z" style="fill:#263238"></path></g><g id="freepik--Books--inject-67"><path d="M206.7,411.71a20,20,0,0,1,2.63-10.15H124.58a9.86,9.86,0,1,0,0,19.71H209A20.08,20.08,0,0,1,206.7,411.71Z" style="fill:#fff"></path><path d="M209.86,421.77H124.58a10.36,10.36,0,1,1,0-20.71h85.63l-.45.76a20.37,20.37,0,0,0-.3,19.21Zm-85.28-19.71a9.36,9.36,0,1,0,0,18.71H208.2a21.54,21.54,0,0,1,.28-18.71Z" style="fill:#263238"></path><path d="M209,423H124.58a11.59,11.59,0,0,1,0-23.18h84.75a1.74,1.74,0,1,1,0,3.47H124.58a8.12,8.12,0,1,0,0,16.24H209a1.74,1.74,0,1,1,0,3.47Z" style="fill:#8c8c8c"></path><path d="M209,423.51H124.58a12.09,12.09,0,0,1,0-24.18h84.75a2.24,2.24,0,1,1,0,4.47H124.58a7.62,7.62,0,1,0,0,15.24H209a2.24,2.24,0,1,1,0,4.47Zm-84.44-23.18a11.09,11.09,0,0,0,0,22.18H209a1.24,1.24,0,1,0,0-2.47H124.58a8.62,8.62,0,1,1,0-17.24h84.75a1.24,1.24,0,1,0,0-2.47Z" style="fill:#263238"></path><path d="M197.54,401.56a21,21,0,0,0-.31,19.71H209a20.88,20.88,0,0,1,.31-19.71Z" style="fill:#fff"></path><path d="M209.86,421.77H196.93l-.14-.26a21.45,21.45,0,0,1,.32-20.2l.15-.25h13l-.45.76a20.37,20.37,0,0,0-.3,19.21Zm-12.33-1H208.2a21.54,21.54,0,0,1,.28-18.71H197.83a20.52,20.52,0,0,0-.3,18.71Z" style="fill:#263238"></path><path d="M209.09,434.7a19.94,19.94,0,0,1,2.63-10.14H127a9.86,9.86,0,0,0,0,19.71h84.44A20.12,20.12,0,0,1,209.09,434.7Z" style="fill:#fff"></path><path d="M212.25,444.77H127a10.36,10.36,0,0,1,0-20.71H212.6l-.45.75a20.39,20.39,0,0,0-.3,19.22ZM127,425.06a9.36,9.36,0,0,0,0,18.71h83.62a21.54,21.54,0,0,1,.28-18.71Z" style="fill:#263238"></path><path d="M211.41,446H127a11.6,11.6,0,0,1,0-23.19h84.75a1.74,1.74,0,1,1,0,3.47H127a8.12,8.12,0,0,0,0,16.24h84.44a1.74,1.74,0,0,1,0,3.48Z" style="fill:#2975D1"></path><path d="M211.41,446.5H127a12.09,12.09,0,0,1,0-24.18h84.75a2.24,2.24,0,1,1,0,4.47H127A7.62,7.62,0,0,0,127,442h84.44a2.24,2.24,0,1,1,0,4.47ZM127,423.32a11.09,11.09,0,0,0,0,22.18h84.44a1.24,1.24,0,1,0,0-2.47H127a8.62,8.62,0,0,1,0-17.24h84.75a1.24,1.24,0,1,0,0-2.47Z" style="fill:#263238"></path><path d="M199.94,424.56a19.84,19.84,0,0,0-2.63,10.14,20.23,20.23,0,0,0,2.31,9.57h11.79a20.88,20.88,0,0,1,.31-19.71Z" style="fill:#fff"></path><path d="M212.25,444.77H199.33l-.15-.26a21.43,21.43,0,0,1,.33-20.21l.14-.24H212.6l-.45.75a20.39,20.39,0,0,0-.3,19.22Zm-12.33-1h10.67a21.54,21.54,0,0,1,.28-18.71H200.22a20.52,20.52,0,0,0-.3,18.71Z" style="fill:#263238"></path></g></svg>
